<?xml version="1.0" encoding="UTF-8" standalone="no"?>
<svg width="1280px" height="40px" viewBox="0 0 1280 40" version="1.1" xmlns="http://www.w3.org/2000/svg" xmlns:xlink="http://www.w3.org/1999/xlink">
    <!-- Generator: Sketch 3.8.3 (29802) - http://www.bohemiancoding.com/sketch -->
    <title>Chrome</title>
    <desc>Created with Sketch.</desc>
    <defs></defs>
    <g id="Page-1" stroke="none" stroke-width="1" fill="none" fill-rule="evenodd">
        <g id="Desktop" transform="translate(-50.000000, -50.000000)" fill="#50E3C2">
            <g id="Window" transform="translate(50.000000, 50.000000)">
                <path d="M0,15.9958904 C0,7.16160409 7.15917651,0 15.9955583,0 L1264.00444,0 C1272.83854,0 1280,7.16273786 1280,15.9958904 L1280,40 L0,40 L0,15.9958904 Z M22,28 C25.3137085,28 28,25.3137085 28,22 C28,18.6862915 25.3137085,16 22,16 C18.6862915,16 16,18.6862915 16,22 C16,25.3137085 18.6862915,28 22,28 Z M46,28 C49.3137085,28 52,25.3137085 52,22 C52,18.6862915 49.3137085,16 46,16 C42.6862915,16 40,18.6862915 40,22 C40,25.3137085 42.6862915,28 46,28 Z M70,28 C73.3137085,28 76,25.3137085 76,22 C76,18.6862915 73.3137085,16 70,16 C66.6862915,16 64,18.6862915 64,22 C64,25.3137085 66.6862915,28 70,28 Z" id="Chrome"></path>
            </g>
        </g>
    </g>
</svg>