<?xml version="1.0" encoding="UTF-8" standalone="no"?>
<svg width="230px" height="50px" viewBox="0 0 230 50" version="1.1" xmlns="http://www.w3.org/2000/svg" xmlns:xlink="http://www.w3.org/1999/xlink">
    <!-- Generator: Sketch 3.8.3 (29802) - http://www.bohemiancoding.com/sketch -->
    <title>Combined Shape</title>
    <desc>Created with Sketch.</desc>
    <defs></defs>
    <g id="Page-1" stroke="none" stroke-width="1" fill="none" fill-rule="evenodd">
        <g id="Mobile" transform="translate(-45.000000, -26.000000)" fill="#073642">
            <g id="Device" transform="translate(45.000000, 26.000000)">
                <g id="Chrome">
                    <path d="M0,15.9921959 C0,7.15995001 7.16747094,0 15.9905464,0 L214.009454,0 C222.840789,0 230,7.16378093 230,15.9921959 L230,50 L0,50 L0,15.9921959 Z M95,33 C95,31.8954305 95.8915398,31 96.9972916,31 L133.002708,31 C134.105782,31 135,31.8877296 135,33 C135,34.1045695 134.10846,35 133.002708,35 L96.9972916,35 C95.8942179,35 95,34.1122704 95,33 Z M115,23 C117.209139,23 119,21.209139 119,19 C119,16.790861 117.209139,15 115,15 C112.790861,15 111,16.790861 111,19 C111,21.209139 112.790861,23 115,23 Z" id="Combined-Shape"></path>
                </g>
            </g>
        </g>
    </g>
</svg>