<?xml version="1.0" encoding="UTF-8" standalone="no"?>
<svg width="627px" height="68px" viewBox="0 0 627 68" version="1.1" xmlns="http://www.w3.org/2000/svg" xmlns:xlink="http://www.w3.org/1999/xlink">
    <!-- Generator: Sketch 3.8.3 (29802) - http://www.bohemiancoding.com/sketch -->
    <title>Bottom</title>
    <desc>Created with Sketch.</desc>
    <defs></defs>
    <g id="Page-1" stroke="none" stroke-width="1" fill="none" fill-rule="evenodd">
        <g id="Tablet" transform="translate(-71.000000, -930.000000)" fill="#073642">
            <g id="Device" transform="translate(71.000000, 26.000000)">
                <g id="Chrome">
                    <path d="M0,920.007438 C0,911.166774 7.16308598,904 15.9902224,904 L611.009778,904 C619.840934,904 627,911.164683 627,920.007438 L627,972 L0,972 L0,920.007438 Z M314,956 C323.941125,956 332,947.941125 332,938 C332,928.058875 323.941125,920 314,920 C304.058875,920 296,928.058875 296,938 C296,947.941125 304.058875,956 314,956 Z M314,952 C321.731986,952 328,945.731986 328,938 C328,930.268014 321.731986,924 314,924 C306.268014,924 300,930.268014 300,938 C300,945.731986 306.268014,952 314,952 Z" id="Bottom" transform="translate(313.500000, 938.000000) scale(1, -1) translate(-313.500000, -938.000000) "></path>
                </g>
            </g>
        </g>
    </g>
</svg>