<?xml version="1.0" standalone="no"?>
<!DOCTYPE svg PUBLIC "-//W3C//DTD SVG 1.1//EN" "http://www.w3.org/Graphics/SVG/1.1/DTD/svg11.dtd" >
<svg xmlns="http://www.w3.org/2000/svg" xmlns:xlink="http://www.w3.org/1999/xlink" version="1.1">
<metadata>
Created by FontForge 20161116 at Fri Apr  7 21:37:57 2017
 By Jimmy Warting
Version 1.0 
</metadata>
<defs>
<font id="GridnikMM-Medium" horiz-adv-x="607" >
  <font-face 
    font-family="GridnikMM"
    font-weight="500"
    font-stretch="normal"
    units-per-em="1000"
    panose-1="0 0 0 0 0 0 0 0 0 0"
    ascent="750"
    descent="-250"
    x-height="476"
    cap-height="667"
    bbox="-62 -315 1129 905"
    underline-thickness="50"
    underline-position="-100"
    unicode-range="U+000D-FB02"
  />
<missing-glyph horiz-adv-x="300" 
 />
    <glyph glyph-name=".notdef" horiz-adv-x="300" 
 />
    <glyph glyph-name=".null" horiz-adv-x="0" 
 />
    <glyph glyph-name=".null" horiz-adv-x="0" 
 />
    <glyph glyph-name="nonmarkingreturn" unicode="&#xd;" horiz-adv-x="250" 
 />
    <glyph glyph-name="space" unicode=" " horiz-adv-x="304" 
 />
    <glyph glyph-name="exclam" unicode="!" horiz-adv-x="304" 
d="M109 208v459h86v-459h-86zM98 0v106h107v-106h-107z" />
    <glyph glyph-name="quotedbl" unicode="&#x22;" horiz-adv-x="498" 
d="M304 467v200h83v-200h-83zM110 467v200h82v-200h-82z" />
    <glyph glyph-name="numbersign" unicode="#" 
d="M459 409l-34 -127h110v-68h-129l-56 -214h-77l58 214h-125l-57 -214h-77l58 214h-110v68h127l35 127h-110v68h127l59 217h76l-58 -217h124l59 217h77l-59 -217h110v-68h-128zM259 409l-35 -127h124l34 127h-123z" />
    <glyph glyph-name="dollar" unicode="$" 
d="M523 117q0 -29 -20 -49l-47 -47q-21 -21 -50 -21h-76v-95h-52v95h-78q-29 0 -49 20l-67 67l54 56l59 -59q6 -6 14 -6h67v218l-128 16q-27 4 -46.5 25.5t-19.5 48.5v164q0 29 20 49l47 47q21 21 50 21h76v95h52v-95h78q29 0 49 -20l67 -67l-54 -56l-59 59q-6 6 -14 6h-67
v-219l128 -15q27 -3 46.5 -25t19.5 -49v-164zM277 589h-65q-9 0 -14 -6l-23 -22q-6 -6 -6 -14v-141q0 -8 5 -13.5t13 -6.5l90 -11v214zM438 261q0 8 -5 13.5t-13 6.5l-91 10v-213h66q10 0 14 6l23 22q6 6 6 14v141z" />
    <glyph glyph-name="percent" unicode="%" horiz-adv-x="878" 
d="M787 69q0 -17 -12 -29l-26 -26q-14 -14 -32 -14h-123q-18 0 -32 14l-26 26q-13 13 -13 29v254q0 17 12 29l26 26q14 14 32 14h123q18 0 32 -14l26 -26q13 -13 13 -29v-254zM292 0h-62l349 672h62zM354 349q0 -17 -12 -29l-26 -26q-14 -14 -32 -14h-123q-18 0 -32 14
l-26 26q-12 12 -12 29v254q0 17 12 29l26 26q14 14 32 14h123q18 0 32 -14l26 -26q12 -12 12 -29v-254zM725 318q0 2 -1 3t-2 3l-12 11q0 1 -2 1.5t-3 0.5h-99q-2 0 -4 -0.5t-2 -1.5l-11 -11q-4 -4 -4 -6v-244q0 -2 1 -3t2 -3l12 -11q0 -2 5 -2h99q2 0 4 0.5t2 1.5l11 11
q4 4 4 7v243zM292 598q0 3 -3 6l-11 11q-2 2 -6 2h-99q-4 0 -6 -2l-11 -11q-3 -3 -3 -6v-244q0 -3 3 -6l11 -11q2 -2 6 -2h99q4 0 6 2l11 11q3 3 3 7v243z" />
    <glyph glyph-name="ampersand" unicode="&#x26;" horiz-adv-x="726" 
d="M606 0l-81 81l-61 -60q-21 -21 -49 -21h-195q-30 0 -50 20l-44 44q-21 21 -21 51v100q0 29 21 50l107 107l-85 85q-12 12 -18 28t-6 33t5.5 32.5t18.5 27.5l62 61q13 13 28.5 19t31.5 6h39q17 0 32.5 -6t27.5 -18l63 -62q13 -12 19 -27.5t6 -32.5t-6 -32.5t-17 -26.5
l-86 -86l178 -179l70 71l56 -55q-19 -20 -35 -35q-14 -15 -24.5 -25.5l-10.5 -10.5l81 -81zM328 576q-9 9 -19 9h-39q-10 0 -19 -9l-34 -34q-19 -19 0 -39l73 -73l72 73q9 9 10 19.5t-9 19.5zM291 315l-93 -93q-7 -7 -7 -14v-90q0 -5 2 -8l4 -6l20 -20q6 -6 14 -6h171
q8 0 14 6l53 52z" />
    <glyph glyph-name="quotesingle" unicode="'" horiz-adv-x="304" 
d="M110 467v200h83v-200h-83z" />
    <glyph glyph-name="parenleft" unicode="(" horiz-adv-x="398" 
d="M306 -193l-195 195q-20 20 -20 49v512q0 29 20 49l195 195l57 -58l-166 -165q-21 -21 -21 -50v-453q0 -29 21 -50l166 -166z" />
    <glyph glyph-name="parenright" unicode=")" horiz-adv-x="398" 
d="M307 51q0 -29 -20 -49l-195 -195l-57 58l166 165q21 21 21 50v453q0 29 -21 50l-166 166l57 58l195 -195q20 -20 20 -49v-512z" />
    <glyph glyph-name="asterisk" unicode="*" horiz-adv-x="600" 
d="M357 413l108 -145l-60 -47l-105 149l-105 -149l-60 46l107 146l-176 56l24 72l173 -57l-1 183h75l-1 -183l174 57l23 -72z" />
    <glyph glyph-name="plus" unicode="+" 
d="M342 200v-200h-76v200h-202v76h201v200h76v-200h201v-76h-200z" />
    <glyph glyph-name="comma" unicode="," horiz-adv-x="304" 
d="M196 -71q0 -17 -4.5 -28t-15.5 -22l-49 -49l-57 56l30 30q7 7 7 14v176h89v-177z" />
    <glyph glyph-name="hyphen" unicode="-" horiz-adv-x="497" 
d="M108 200v76h281v-76h-281z" />
    <glyph glyph-name="period" unicode="." horiz-adv-x="304" 
d="M98 0v106h107v-106h-107z" />
    <glyph glyph-name="slash" unicode="/" horiz-adv-x="553" 
d="M121 -84h-81l392 839h81z" />
    <glyph glyph-name="zero" unicode="0" horiz-adv-x="625" 
d="M525 117q0 -14 -4 -25.5t-15 -22.5l-47 -47q-22 -22 -51 -22h-191q-29 0 -51 22l-47 47q-11 11 -15 22.5t-4 25.5v433q0 29 19 48l47 47q22 22 51 22h191q29 0 51 -22l47 -47q19 -19 19 -48v-433zM440 546q0 9 -5 14l-23 23q-6 6 -15 6h-169q-9 0 -15 -6l-23 -23
q-5 -5 -5 -14v-425q0 -9 5 -14l23 -23q6 -6 15 -6h169q9 0 15 6l23 23q5 5 5 15v424z" />
    <glyph glyph-name="one" unicode="1" horiz-adv-x="541" 
d="M120 0v78h129v511h-129v78h213v-589h128v-78h-341z" />
    <glyph glyph-name="two" unicode="2" horiz-adv-x="628" 
d="M103 0v213q0 21 10.5 38t30.5 26l287 128q12 5 12 18v123q0 9 -5 14l-23 23q-6 6 -15 6h-169q-9 0 -15 -6l-61 -61l-55 54l69 69q22 22 51 22h191q29 0 51 -22l47 -47q19 -19 19 -48v-144q0 -21 -10.5 -38t-30.5 -26l-287 -129q-12 -5 -12 -18v-117h340v-78h-425z" />
    <glyph glyph-name="three" unicode="3" horiz-adv-x="608" 
d="M508 117q0 -14 -4 -25.5t-15 -22.5l-47 -47q-22 -22 -51 -22h-191q-29 0 -51 22l-69 69l55 54l61 -61q6 -6 15 -6h169q9 0 15 6l23 23q5 5 5 14v142q0 10 -5 14l-29 30q-6 6 -15 6h-136v78h135q11 0 15 6l30 29q5 5 5 14v106q0 9 -5 14l-23 23q-6 6 -15 6h-169
q-9 0 -15 -6l-61 -61l-55 54l69 69q22 22 51 22h191q29 0 51 -22l47 -47q19 -19 19 -48v-113q0 -29 -21 -50l-35 -35l36 -36q20 -20 20 -48v-151z" />
    <glyph glyph-name="four" unicode="4" horiz-adv-x="640" 
d="M496 179v-179h-85v179h-351v71l352 417h83v-410h85v-78h-84zM411 546l-244 -289h244v289z" />
    <glyph glyph-name="five" unicode="5" horiz-adv-x="628" 
d="M528 117q0 -14 -4 -25.5t-15 -22.5l-47 -47q-22 -22 -51 -22h-191q-29 0 -51 22l-69 69l55 54l61 -61q6 -6 15 -6h169q9 0 15 6l23 23q5 5 5 14v173q0 7 -5 12l-23 23q-6 6 -15 6h-269v332h369v-78h-284v-176h195q29 0 51 -22l47 -47q11 -11 15 -21.5t4 -24.5v-181z" />
    <glyph glyph-name="six" unicode="6" horiz-adv-x="628" 
d="M473 522l-61 61q-6 6 -15 6h-169q-9 0 -15 -6l-23 -23q-5 -5 -5 -14v-203l48 48q22 22 51 22h124q29 0 51 -22l47 -47q11 -11 15 -22.5t4 -25.5v-179q0 -14 -4 -25.5t-15 -22.5l-47 -47q-22 -22 -51 -22h-191q-29 0 -51 22l-47 47q-11 11 -15 22.5t-4 25.5v433
q0 29 19 48l47 47q22 22 51 22h191q29 0 51 -22l69 -69zM440 291q0 10 -5 15l-23 23q-6 6 -15 6h-109q-10 0 -15 -6l-83 -82q-5 -5 -5 -14v-112q0 -9 5 -14l23 -23q6 -6 15 -6h169q9 0 15 6l23 23q5 5 5 14v170z" />
    <glyph glyph-name="seven" unicode="7" horiz-adv-x="567" 
d="M213 0h-92l267 589h-328v78h427v-58z" />
    <glyph glyph-name="eight" unicode="8" horiz-adv-x="625" 
d="M525 117q0 -14 -4 -25.5t-15 -22.5l-47 -47q-22 -22 -51 -22h-191q-29 0 -51 22l-47 47q-11 11 -15 22.5t-4 25.5v146q0 31 20 50l36 35l-35 35q-21 21 -21 51v116q0 29 19 48l47 47q22 22 51 22h191q29 0 51 -22l47 -47q19 -19 19 -48v-116q0 -29 -21 -50l-35 -35
l35 -36q21 -21 21 -49v-147zM440 546q0 9 -5 14l-23 23q-6 6 -15 6h-169q-9 0 -15 -6l-23 -23q-5 -5 -5 -14v-108q0 -10 5 -14l30 -30q7 -7 15 -7h155q9 0 15 6l30 30q5 5 5 15v108zM440 259q0 10 -5 14l-30 30q-7 7 -15 7h-155q-7 0 -15 -6l-30 -30q-5 -5 -5 -14v-139
q0 -9 5 -14l23 -23q6 -6 15 -6h169q9 0 15 6l23 23q5 5 5 15v137z" />
    <glyph glyph-name="nine" unicode="9" horiz-adv-x="628" 
d="M528 117q0 -14 -4 -25.5t-15 -22.5l-47 -47q-22 -22 -51 -22h-191q-29 0 -51 22l-69 69l55 54l61 -61q6 -6 15 -6h169q9 0 15 6l23 23q5 5 5 14v203l-48 -48q-22 -22 -51 -22h-124q-29 0 -51 22l-47 47q-11 11 -15 22.5t-4 25.5v179q0 29 19 48l47 47q22 22 51 22h191
q29 0 51 -22l47 -47q19 -19 19 -48v-433zM443 546q0 9 -5 14l-23 23q-6 6 -15 6h-169q-9 0 -15 -6l-23 -23q-5 -5 -5 -14v-170q0 -10 5 -15l23 -23q6 -6 15 -6h109q11 0 15 6l83 82q5 5 5 15v111z" />
    <glyph glyph-name="colon" unicode=":" horiz-adv-x="304" 
d="M98 370v106h107v-106h-107zM98 0v106h107v-106h-107z" />
    <glyph glyph-name="semicolon" unicode=";" horiz-adv-x="304" 
d="M98 370v106h107v-106h-107zM196 -71q0 -17 -4.5 -28t-15.5 -22l-49 -49l-57 56l30 30q7 7 7 14v176h89v-177z" />
    <glyph glyph-name="less" unicode="&#x3c;" 
d="M396 0l-239 238l239 238l53 -54l-184 -184l184 -184z" />
    <glyph glyph-name="equal" unicode="=" 
d="M65 299v77h477v-77h-477zM65 102v77h477v-77h-477z" />
    <glyph glyph-name="greater" unicode="&#x3e;" 
d="M211 0l-53 54l184 184l-184 184l53 54l238 -238z" />
    <glyph glyph-name="question" unicode="?" horiz-adv-x="509" 
d="M418 448q0 -29 -21 -50l-123 -123q-6 -6 -6 -14v-56h-86v59q0 29 20 49l124 124q6 6 6 14v96q0 10 -6 14l-22 22q-6 6 -14 6h-113q-9 0 -15 -6l-57 -57l-56 55l65 65q21 21 49 21h140q28 0 49 -21l45 -45q21 -21 21 -49v-104zM171 0v106h106v-106h-106z" />
    <glyph glyph-name="at" unicode="@" horiz-adv-x="1004" 
d="M913 66q0 -9 -6 -14l-45 -46q-6 -6 -14 -6h-155q-8 0 -14 6l-45 46q-6 5 -6 14v7l-53 -52q-21 -21 -49 -21h-130q-29 0 -49 20l-44 44q-21 21 -21 51v78q0 30 21 51l39 39q21 21 50 21h231v54q0 8 -6 14l-20 20q-6 6 -14 6h-180q-9 0 -14 -6l-37 -37l-53 53l48 48
q20 20 49 20h198q29 0 49 -20l44 -44q21 -21 21 -51v-263q0 -8 6 -14t14 -6h87q8 0 14 6t6 14v408q0 9 -6 15l-62 62q-6 6 -14 6h-501q-8 0 -14 -6l-63 -63q-6 -6 -6 -15v-534q0 -9 6 -15l63 -63q6 -6 14 -6h583v-78h-614q-8 0 -14 6l-110 110q-6 6 -6 14v598q0 8 6 14
l110 110q6 6 14 6h563q8 0 14 -6l109 -109q6 -6 6 -15v-471zM623 230h-215q-8 0 -14 -6l-20 -20q-7 -7 -7 -14v-72q0 -5 2 -8l4 -6l20 -20q6 -6 14 -6h116q9 0 15 6l79 79q6 6 6 14v53z" />
    <glyph glyph-name="A" unicode="A" horiz-adv-x="699" 
d="M566 0l-68 179h-299l-68 -179h-91l250 667h120l249 -667h-93zM349 585l-118 -322h234z" />
    <glyph glyph-name="B" unicode="B" horiz-adv-x="671" 
d="M591 129q0 -14 -4.5 -27t-15.5 -23l-59 -58q-21 -21 -49 -21h-363v667h362q29 0 50 -21l59 -59q20 -20 20 -49v-97q0 -29 -21 -50l-58 -57l58 -58q21 -21 21 -49v-98zM501 526q0 8 -6 14l-33 33q-6 6 -14 6h-257v-203h237q8 0 14 6l53 53q6 6 6 15v76zM501 216q0 8 -6 14
l-54 54q-7 7 -14 7h-236v-203h256q10 0 14 6l33 33q7 7 7 14v75z" />
    <glyph glyph-name="C" unicode="C" horiz-adv-x="612" 
d="M478 21q-21 -21 -50 -21h-195q-29 0 -50 21l-82 82q-21 21 -21 50v361q0 29 21 50l82 82q21 21 50 21h195q29 0 50 -21l94 -94l-62 -62l-83 83q-6 6 -14 6h-165q-8 0 -14 -6l-57 -57q-6 -6 -6 -14v-337q0 -8 6 -14l57 -57q6 -6 14 -6h165q8 0 14 6l82 83l63 -62z" />
    <glyph glyph-name="D" unicode="D" horiz-adv-x="672" 
d="M592 153q0 -29 -21 -50l-82 -82q-21 -21 -50 -21h-339v667h338q29 0 50 -21l82 -82q22 -22 22 -50v-361zM501 502q0 6 -6 14l-57 57q-6 6 -14 6h-233v-491h233q10 0 14 6l57 57q6 6 6 14v337z" />
    <glyph glyph-name="E" unicode="E" horiz-adv-x="611" 
d="M100 0v667h431v-88h-340v-201h340v-88h-340v-202h340v-88h-431z" />
    <glyph glyph-name="F" unicode="F" horiz-adv-x="592" 
d="M191 290v-290h-91v667h432v-88h-341v-201h341v-88h-341z" />
    <glyph glyph-name="G" unicode="G" horiz-adv-x="713" 
d="M633 153q0 -29 -21 -50l-82 -82q-21 -21 -50 -21h-247q-29 0 -50 21l-82 82q-21 21 -21 50v361q0 29 21 50l82 82q21 21 50 21h247q28 0 49 -21l94 -94l-62 -62l-83 83q-6 6 -14 6h-216q-8 0 -14 -6l-57 -57q-6 -6 -6 -14v-337q0 -8 6 -14l57 -57q6 -6 14 -6h217
q10 0 14 6l57 57q6 6 6 14v125h-181v88h272v-225z" />
    <glyph glyph-name="H" unicode="H" horiz-adv-x="692" 
d="M501 0v290h-310v-290h-91v667h91v-289h309v289h92v-667h-91z" />
    <glyph glyph-name="I" unicode="I" horiz-adv-x="311" 
d="M110 0v667h91v-667h-91z" />
    <glyph glyph-name="J" unicode="J" horiz-adv-x="580" 
d="M480 153q0 -29 -21 -50l-82 -82q-21 -21 -50 -21h-143q-29 0 -50 21l-94 94l62 62l83 -83q6 -6 14 -6h113q8 0 14 6l57 57q6 6 6 14v414h-318v88h409v-514z" />
    <glyph glyph-name="K" unicode="K" horiz-adv-x="650" 
d="M519 0l-234 326l-94 -94v-232h-91v667h91v-324l316 324h111l-271 -276l283 -391h-111z" />
    <glyph glyph-name="L" unicode="L" horiz-adv-x="571" 
d="M100 0v667h91v-579h340v-88h-431z" />
    <glyph glyph-name="M" unicode="M" horiz-adv-x="848" 
d="M659 0v582l-189 -582h-92l-188 582v-582h-90v667h149l175 -542l175 542h149v-667h-89z" />
    <glyph glyph-name="N" unicode="N" horiz-adv-x="692" 
d="M456 0l-266 563v-563h-90v667h136l266 -563v563h90v-667h-136z" />
    <glyph glyph-name="O" unicode="O" horiz-adv-x="713" 
d="M633 153q0 -29 -21 -50l-82 -82q-21 -21 -50 -21h-247q-29 0 -50 21l-82 82q-21 21 -21 50v361q0 29 21 50l82 82q21 21 50 21h246q29 0 50 -21l82 -82q22 -22 22 -50v-361zM542 502q0 6 -6 14l-57 57q-6 6 -14 6h-217q-8 0 -14 -6l-57 -57q-6 -6 -6 -14v-337q0 -8 6 -14
l57 -57q6 -6 14 -6h217q10 0 14 6l57 57q6 6 6 14v337z" />
    <glyph glyph-name="P" unicode="P" horiz-adv-x="652" 
d="M592 412q0 -29 -21 -50l-59 -59q-20 -20 -48 -20h-273v-283h-91v667h363q28 0 48 -20l59 -59q22 -22 22 -50v-126zM501 526q0 8 -6 14l-33 33q-6 6 -14 6h-257v-208h257q10 0 14 6l33 33q6 6 6 14v102z" />
    <glyph glyph-name="Q" unicode="Q" horiz-adv-x="713" 
d="M633 153q0 -29 -21 -50l-82 -82q-21 -21 -50 -21l47 -110l-70 -29l-59 139h-165q-29 0 -50 21l-82 82q-21 21 -21 50v361q0 29 21 50l82 82q21 21 50 21h246q29 0 50 -21l82 -82q22 -22 22 -50v-361zM542 502q0 6 -6 14l-57 57q-6 6 -14 6h-217q-8 0 -14 -6l-57 -57
q-6 -6 -6 -14v-337q0 -8 6 -14l57 -57q6 -6 14 -6h112l-24 57l70 32l37 -89h22q10 0 14 6l57 57q6 6 6 14v337z" />
    <glyph glyph-name="R" unicode="R" horiz-adv-x="700" 
d="M530 0l-190 274q-7 9 -17 9h-132v-283h-91v667h363q28 0 48 -20l59 -59q22 -22 22 -50v-126q0 -29 -21 -50l-59 -59q-20 -20 -48 -20h-25l201 -283h-110zM501 526q0 8 -6 14l-33 33q-6 6 -14 6h-257v-208h257q10 0 14 6l33 33q6 6 6 14v102z" />
    <glyph glyph-name="S" unicode="S" horiz-adv-x="713" 
d="M633 153q0 -29 -21 -50l-82 -82q-21 -21 -50 -21h-256q-29 0 -50 21l-94 94l62 62l83 -83q6 -6 14 -6h225q10 0 14 6l57 57q7 7 7 14v82q0 8 -6 13.5t-13 6.5l-377 49q-28 4 -47 25t-19 49v124q0 29 21 50l82 82q21 21 50 21h255q27 0 50 -21l95 -94l-62 -62l-83 83
q-6 6 -14 6h-226q-8 0 -14 -6l-57 -57q-6 -6 -6 -14v-82q0 -8 5 -13.5t13 -6.5l378 -49q28 -4 47 -25t19 -49v-124z" />
    <glyph glyph-name="T" unicode="T" horiz-adv-x="571" 
d="M331 579v-579h-91v579h-200v88h491v-88h-200z" />
    <glyph glyph-name="U" unicode="U" horiz-adv-x="692" 
d="M592 153q0 -29 -21 -50l-82 -82q-21 -21 -50 -21h-186q-29 0 -50 21l-82 82q-21 21 -21 50v514h91v-502q0 -8 6 -14l57 -57q6 -6 14 -6h155q10 0 14 6l57 57q6 6 6 14v502h92v-514z" />
    <glyph glyph-name="V" unicode="V" horiz-adv-x="642" 
d="M381 0h-121l-220 667h93l189 -583l189 583h91z" />
    <glyph glyph-name="W" unicode="W" horiz-adv-x="888" 
d="M685 0h-125l-117 572l-117 -572h-124l-142 667h93l114 -575l115 575h129l113 -575l116 575h88z" />
    <glyph glyph-name="X" unicode="X" horiz-adv-x="622" 
d="M458 0l-147 251l-149 -251h-102l201 333l-201 334h103l148 -252l148 252h102l-201 -333l202 -334h-104z" />
    <glyph glyph-name="Y" unicode="Y" horiz-adv-x="636" 
d="M364 295v-295h-91v295l-233 372h102l177 -283l177 283h100z" />
    <glyph glyph-name="Z" unicode="Z" horiz-adv-x="652" 
d="M80 0v69l372 510h-372v88h492v-69l-373 -510h373v-88h-492z" />
    <glyph glyph-name="bracketleft" unicode="[" horiz-adv-x="401" 
d="M119 -191v997h233v-78h-148v-840h148v-79h-233z" />
    <glyph glyph-name="backslash" unicode="\" horiz-adv-x="553" 
d="M433 -84l-393 839h80l393 -839h-80z" />
    <glyph glyph-name="bracketright" unicode="]" horiz-adv-x="401" 
d="M49 -191v78h147v840h-147v79h233v-997h-233z" />
    <glyph glyph-name="asciicircum" unicode="^" 
d="M487 379l-183 183l-185 -183l-53 53l237 238l238 -238z" />
    <glyph glyph-name="underscore" unicode="_" horiz-adv-x="500" 
d="M0 -315v79h500v-79h-500z" />
    <glyph glyph-name="grave" unicode="`" horiz-adv-x="465" 
d="M256 521l-146 146h92l146 -146h-92z" />
    <glyph glyph-name="a" unicode="a" horiz-adv-x="556" 
d="M406 0v73l-53 -52q-21 -21 -49 -21h-130q-29 0 -49 20l-44 44q-21 21 -21 51v78q0 30 21 51l39 39q21 21 50 21h231v54q0 8 -6 14l-20 20q-6 6 -14 6h-180q-9 0 -14 -6l-37 -37l-53 53l48 48q20 20 49 20h198q29 0 49 -20l44 -44q21 -21 21 -51v-361h-80zM401 230h-215
q-8 0 -14 -6l-20 -20q-7 -7 -7 -14v-72q0 -5 2 -8l4 -6l20 -20q6 -6 14 -6h116q9 0 15 6l79 79q6 6 6 14v53z" />
    <glyph glyph-name="b" unicode="b" horiz-adv-x="577" 
d="M507 116q0 -31 -21 -52l-44 -44q-20 -20 -49 -20h-130q-29 0 -49 20l-53 53v-73h-81v667h85v-260l48 48q21 21 50 21h129q29 0 49 -20l44 -44q22 -22 22 -51v-245zM421 358q0 8 -6 14l-20 20q-6 6 -14 6h-116q-9 0 -14 -6l-79 -79q-7 -7 -7 -14v-122q0 -6 6 -14l79 -79
q6 -6 15 -6h116q8 0 14 6l20 20q6 6 6 17v237z" />
    <glyph glyph-name="c" unicode="c" horiz-adv-x="528" 
d="M425 20q-20 -20 -49 -20h-192q-29 0 -49 20l-44 44q-21 21 -21 51v246q0 30 21 51l44 44q20 20 49 20h191q27 0 49 -20l64 -63l-55 -56l-55 55q-6 6 -14 6h-168q-9 0 -14 -6l-20 -20q-7 -7 -7 -14v-240q0 -6 6 -14l20 -20q6 -6 14 -6h169q8 0 14 6l54 55l56 -55z" />
    <glyph glyph-name="d" unicode="d" horiz-adv-x="576" 
d="M416 0v73l-53 -52q-21 -21 -49 -21h-130q-29 0 -49 20l-44 44q-21 21 -21 52v245q0 30 21 51l44 44q20 20 49 20h129q14 0 27 -4.5t23 -15.5l48 -49v260h85v-667h-80zM411 299q0 8 -6 14l-79 79q-6 6 -14 6h-116q-9 0 -14 -6l-20 -20q-7 -7 -7 -14v-237q0 -9 6 -17
l20 -20q6 -6 14 -6h116q9 0 15 6l79 79q6 6 6 14v122z" />
    <glyph glyph-name="e" unicode="e" horiz-adv-x="556" 
d="M155 217v-99q0 -7 5 -14l20 -20q6 -6 14 -6h177q8 0 14 6l54 55l56 -55l-63 -64q-20 -20 -49 -20h-199q-29 0 -49 20l-44 44q-21 21 -21 51v246q0 30 21 51l44 44q20 20 49 20h198q29 0 49 -20l44 -44q21 -21 21 -51v-144h-341zM411 358q0 8 -6 14l-20 20q-6 6 -14 6
h-175q-9 0 -14 -6l-20 -20q-5 -5 -7 -14v-66h256v66z" />
    <glyph glyph-name="f" unicode="f" horiz-adv-x="341" 
d="M192 398v-398h-85v398h-77v78h76v78q0 31 21 52l41 41q20 20 49 20h94v-78h-79q-8 0 -14 -6l-20 -20q-6 -6 -6 -16v-71h119v-78h-119z" />
    <glyph glyph-name="g" unicode="g" horiz-adv-x="577" 
d="M497 -75q0 -30 -21 -51l-44 -44q-21 -21 -49 -21h-199q-29 0 -49 20l-60 60l54 55l51 -51q6 -7 14 -7h177q6 0 14 6l20 20q6 6 6 14v143l-48 -48q-21 -21 -49 -21h-130q-29 0 -49 20l-44 44q-21 21 -21 51v245q0 31 21 52l44 44q20 20 49 20h129q30 0 50 -20l53 -53v73
h81v-551zM411 299q0 8 -6 14l-79 79q-6 6 -14 6h-116q-9 0 -14 -6l-20 -20q-7 -7 -7 -16v-238q0 -5 2 -8l4 -6l20 -20q6 -6 14 -6h116q9 0 15 6l79 79q6 6 6 14v122z" />
    <glyph glyph-name="h" unicode="h" horiz-adv-x="562" 
d="M396 0v358q0 8 -6 14l-23 23q-7 7 -14 7h-84q-7 0 -15 -6l-82 -83q-6 -6 -6 -14v-299h-86v667h85v-260l48 48q21 21 50 21h104q29 0 49 -20l44 -44q22 -22 22 -51v-361h-86z" />
    <glyph glyph-name="i" unicode="i" horiz-adv-x="266" 
d="M90 581v86h86v-86h-86zM90 0v476h86v-476h-86z" />
    <glyph glyph-name="j" unicode="j" horiz-adv-x="266" 
d="M90 581v86h86v-86h-86zM176 -78q0 -31 -21 -52l-41 -41q-20 -20 -49 -20h-93v78h78q8 0 14 6l20 20q6 6 6 16v547h86v-554z" />
    <glyph glyph-name="k" unicode="k" horiz-adv-x="512" 
d="M383 0l-207 221v-221h-86v667h85v-388l181 197h109l-212 -225l239 -251h-109z" />
    <glyph glyph-name="l" unicode="l" horiz-adv-x="266" 
d="M90 0v667h86v-667h-86z" />
    <glyph glyph-name="m" unicode="m" horiz-adv-x="793" 
d="M627 0v358q0 8 -6 14l-23 23q-7 7 -14 7h-42q-8 0 -14 -6l-83 -83q-6 -6 -6 -14v-299h-85v358q0 5 -2 8l-4 6l-24 23q-7 7 -14 7h-41q-7 0 -15 -6l-82 -83q-6 -6 -6 -14v-299h-86v476h80v-74l53 53q21 21 50 21h62q29 0 49 -20l57 -57l56 56q21 21 49 21h62q29 0 49 -20
l44 -44q22 -22 22 -51v-361h-86z" />
    <glyph glyph-name="n" unicode="n" horiz-adv-x="562" 
d="M396 0v358q0 8 -6 14l-23 23q-7 7 -14 7h-84q-7 0 -15 -6l-82 -83q-6 -6 -6 -14v-299h-86v476h80v-74l53 53q21 21 50 21h104q29 0 49 -20l44 -44q22 -22 22 -51v-361h-86z" />
    <glyph glyph-name="o" unicode="o" horiz-adv-x="567" 
d="M497 117q0 -32 -21 -53l-44 -44q-20 -20 -49 -20h-199q-29 0 -49 20l-44 44q-21 21 -21 51v246q0 30 21 51l44 44q20 20 49 20h198q29 0 49 -20l44 -44q22 -22 22 -51v-244zM411 358q0 8 -6 14l-20 20q-6 6 -14 6h-175q-9 0 -14 -6l-20 -20q-7 -7 -7 -14v-240q0 -5 2 -8
l4 -6l20 -20q6 -6 14 -6h176q8 0 14 6l20 20q6 6 6 17v237z" />
    <glyph glyph-name="p" unicode="p" horiz-adv-x="577" 
d="M507 115q0 -30 -21 -51l-44 -44q-20 -20 -49 -20h-130q-29 0 -49 20l-48 49v-260h-86v667h80v-73l53 52q21 21 50 21h129q29 0 49 -20l44 -44q22 -22 22 -52v-245zM421 355q0 11 -6 17l-20 20q-6 6 -14 6h-116q-9 0 -14 -6l-79 -79q-7 -7 -7 -14v-122q0 -6 6 -14l79 -79
q6 -6 15 -6h116q8 0 14 6l20 20q6 6 6 14v237z" />
    <glyph glyph-name="q" unicode="q" horiz-adv-x="577" 
d="M411 -191v260l-48 -48q-21 -21 -49 -21h-130q-29 0 -49 20l-44 44q-21 21 -21 51v245q0 31 21 52l44 44q20 20 49 20h129q30 0 50 -20l53 -53v73h81v-667h-86zM411 299q0 8 -6 14l-79 79q-6 6 -14 6h-116q-9 0 -14 -6l-20 -20q-7 -7 -7 -16v-238q0 -5 2 -8l4 -6l20 -20
q6 -6 14 -6h116q9 0 15 6l79 79q6 6 6 14v122z" />
    <glyph glyph-name="r" unicode="r" horiz-adv-x="381" 
d="M269 402q-7 0 -15 -6l-82 -83q-6 -6 -6 -14v-299h-86v476h80v-74l53 53q21 21 50 21h98v-74h-92z" />
    <glyph glyph-name="s" unicode="s" horiz-adv-x="529" 
d="M469 116q0 -31 -21 -52l-44 -44q-20 -20 -49 -20h-174q-29 0 -49 20l-62 62l55 55l53 -53q6 -6 14 -6h151q8 0 14 6l20 20q6 6 6 16v49q0 8 -5 13.5t-13 6.5l-232 29q-26 3 -44.5 23t-18.5 46v74q0 30 21 51l44 44q20 20 49 20h174q27 0 49 -20l62 -61l-55 -56l-53 53
q-6 6 -14 6h-151q-8 0 -14 -6l-20 -20q-6 -6 -6 -14v-46q0 -8 5 -13.5t13 -6.5l233 -30q26 -3 44 -23t18 -46v-77z" />
    <glyph glyph-name="t" unicode="t" horiz-adv-x="341" 
d="M217 0q-29 0 -49 20l-40 40q-21 21 -21 52v286h-77v78h76v191h86v-191h119v-78h-119v-277q0 -11 6 -17l20 -20q6 -6 14 -6h79v-78h-94z" />
    <glyph glyph-name="u" unicode="u" horiz-adv-x="551" 
d="M391 0v74l-53 -53q-21 -21 -49 -21h-105q-29 0 -49 20l-44 44q-21 21 -21 51v361h85v-358q0 -5 2 -8l4 -6l24 -23q7 -7 14 -7h84q8 0 14 6l83 83q6 6 6 14v299h85v-476h-80z" />
    <glyph glyph-name="v" unicode="v" horiz-adv-x="505" 
d="M312 0h-118l-154 476h88l125 -400l126 400h86z" />
    <glyph glyph-name="w" unicode="w" horiz-adv-x="818" 
d="M635 0h-121l-105 401l-103 -401h-121l-125 476h86l99 -399l98 399h133l99 -399l97 399h86z" />
    <glyph glyph-name="x" unicode="x" horiz-adv-x="467" 
d="M347 0l-114 170l-115 -170h-98l167 238l-166 238h99l114 -169l114 169h99l-166 -237l166 -239h-100z" />
    <glyph glyph-name="y" unicode="y" horiz-adv-x="505" 
d="M235 -191h-87l59 183l-167 484h89l124 -370l125 370h87z" />
    <glyph glyph-name="z" unicode="z" horiz-adv-x="477" 
d="M40 0v63l283 335h-283v78h397v-63l-283 -335h283v-78h-397z" />
    <glyph glyph-name="braceleft" unicode="{" horiz-adv-x="398" 
d="M308 -193l-111 111q-21 21 -21 50v222q0 6 -6 14l-48 48q-11 11 -19 24.5t-8 30.5q0 16 7.5 30t18.5 25l48 48q6 6 6 14v221q0 27 21 50l111 112l56 -56l-96 -96q-6 -6 -6 -14v-216q0 -30 -21 -50l-51 -50q-8 -8 -8 -17.5t8 -17.5l50 -51q21 -21 21 -50v-216q0 -8 6 -14
l97 -96z" />
    <glyph glyph-name="bar" unicode="|" horiz-adv-x="304" 
d="M110 -191v858h82v-858h-82z" />
    <glyph glyph-name="braceright" unicode="}" horiz-adv-x="398" 
d="M303 307q0 -17 -8 -31t-18 -24l-48 -48q-6 -6 -6 -14v-222q0 -29 -21 -50l-111 -111l-56 56l96 95q6 6 6 14v217q0 31 21 50l51 50q8 8 8 17.5t-8 17.5l-50 51q-21 21 -21 50v216q0 6 -6 14l-97 96l55 56l111 -112q21 -21 21 -50v-221q0 -6 6 -14l48 -48q11 -11 19 -25
t8 -30z" />
    <glyph glyph-name="asciitilde" unicode="~" 
d="M408 131q-4 -4 -12.5 -8.5t-20.5 -4.5t-21 4.5t-13 8.5l-107 107q-10 10 -21 0l-114 -113l-54 53l146 146q4 4 13 8t20 4q12 0 20.5 -4t13.5 -9l107 -107q11 -10 21 0l122 122l54 -53z" />
    <glyph glyph-name="nonbreakingspace" unicode="&#xa0;" horiz-adv-x="304" 
 />
    <glyph glyph-name="exclamdown" unicode="&#xa1;" horiz-adv-x="304" 
d="M99 370v106h106v-106h-106zM109 -191v459h86v-459h-86z" />
    <glyph glyph-name="cent" unicode="&#xa2;" 
d="M450 20q-20 -20 -49 -20h-70v-96h-52v96h-70q-29 0 -49 20l-44 44q-21 21 -21 51v246q0 30 21 51l44 44q20 20 49 20h70v99h52v-99h69q27 0 49 -20l64 -63l-55 -56l-55 55q-6 6 -14 6h-58v-320h58q8 0 14 6l54 55l56 -55zM279 398h-58q-9 0 -14 -6l-20 -20q-7 -7 -7 -14
v-240q0 -6 6 -14l20 -20q6 -6 14 -6h59v320z" />
    <glyph glyph-name="sterling" unicode="&#xa3;" 
d="M510 524l-59 59q-6 6 -15 6h-172q-10 0 -15 -6l-24 -24q-6 -6 -6 -14v-173h288v-78h-288v-216h343v-78h-485v78h57v216h-57v78h57v178q0 29 19 48l47 47q22 22 51 22h198q29 0 50 -21l67 -66z" />
    <glyph glyph-name="currency" unicode="&#xa4;" 
d="M465 21q-21 -21 -50 -21h-136q-29 0 -50 21l-82 82q-21 21 -21 50v94h-77v50h77v75h-77v50h77v92q0 29 21 50l82 82q21 21 50 21h136q29 0 50 -21l94 -94l-61 -60l-84 84q-6 6 -14 6h-106q-8 0 -14 -6l-60 -60q-6 -6 -6 -14v-80h133v-50h-133v-75h133v-50h-133v-82
q0 -8 6 -14l60 -60q6 -6 14 -6h106q8 0 14 6l84 84l61 -60z" />
    <glyph glyph-name="yen" unicode="&#xa5;" 
d="M418 422h99v-50h-130l-40 -62v-13h170v-50h-170v-247h-87v247h-170v50h170v13l-40 62h-130v50h99l-154 245h99l169 -275l170 275h99z" />
    <glyph glyph-name="brokenbar" unicode="&#xa6;" horiz-adv-x="304" 
d="M110 381v286h82v-286h-82zM110 -191v286h82v-286h-82z" />
    <glyph glyph-name="section" unicode="&#xa7;" 
d="M435 525l-58 58q-6 6 -15 6h-118q-9 0 -15 -6l-21 -21q-5 -5 -5 -14v-62q0 -11 8 -16l278 -174l-41 -67l-303 191q-16 10 -22 24t-6 31v77q0 29 20 49l44 44q22 22 51 22h141q29 0 49 -20l68 -67zM490 20q0 -29 -20 -49l-44 -44q-22 -22 -51 -22h-141q-26 0 -49 21
l-68 66l55 55l58 -58q6 -6 15 -6h118q9 0 15 6l21 21q5 5 5 14v63q0 10 -8 15l-278 174l41 67l303 -191q16 -10 22 -24t6 -31v-77z" />
    <glyph glyph-name="dieresis" unicode="&#xa8;" horiz-adv-x="465" 
d="M276 581v86h86v-86h-86zM104 581v86h86v-86h-86z" />
    <glyph glyph-name="copyright" unicode="&#xa9;" horiz-adv-x="826" 
d="M770 333q0 -74 -28 -139t-76.5 -113.5t-113.5 -76.5t-139 -28t-139 28t-113.5 76.5t-76.5 113.5t-28 139t28 139t76.5 113.5t113.5 76.5t139 28t139 -28t113.5 -76.5t76.5 -113.5t28 -139zM695 333q0 59 -22 110.5t-60.5 90t-89.5 61t-110 22.5q-58 0 -109.5 -22.5
t-90 -61t-60.5 -90t-22 -110.5q0 -58 22 -110t60.5 -90.5t90 -61t109.5 -22.5q59 0 110 22.5t89.5 61t60.5 90.5t22 110zM505 145q-14 -14 -34 -14h-120q-20 0 -34 14l-56 56q-14 14 -14 34v198q0 20 14 34l56 55q15 15 34 15h120q19 0 34 -15l61 -61l-45 -45l-49 50
q-2 2 -4 3t-6 1h-102q-4 0 -6 -1t-4 -3l-32 -33q-4 -4 -4 -10v-179q0 -6 4 -10l32 -32q4 -4 10 -4h102q6 0 10 4l49 49l45 -45z" />
    <glyph glyph-name="ordfeminine" unicode="&#xaa;" horiz-adv-x="386" 
d="M283 334v48l-34 -33q-15 -15 -34 -15h-90q-22 0 -36 14l-30 31q-15 15 -15 36v54q0 22 15 37l27 27q15 15 36 15h158v35q0 3 -5 8l-14 14q-4 4 -7 4h-124q-4 0 -8 -4l-28 -27l-39 40l34 35q14 14 36 14h136q23 0 36 -14l30 -31q15 -15 15 -36v-252h-59zM280 494h-147
q-4 0 -8 -4l-14 -14q-5 -5 -5 -9v-49q0 -3 5 -8l14 -14q4 -4 7 -4h81q5 0 9 4l53 55l2 1q3 3 3 6v36z" />
    <glyph glyph-name="guillemotleft" unicode="&#xab;" horiz-adv-x="593" 
d="M447 53l-124 124q-17 17 -21 35.5t-4 25.5t4 25.5t21 35.5l124 124l55 -55l-116 -116q-6 -6 -6 -14t6 -14l116 -116zM240 53l-124 124q-17 17 -21 35.5t-4 25.5t4 25.5t21 35.5l124 124l55 -55l-116 -116q-6 -6 -6 -14t6 -14l116 -116z" />
    <glyph glyph-name="logicalnot" unicode="&#xac;" 
d="M466 0v286h-401v76h477v-362h-76z" />
    <glyph glyph-name="registered" unicode="&#xae;" horiz-adv-x="544" 
d="M502 460q0 -48 -18 -89.5t-49.5 -73t-73 -49.5t-89.5 -18t-89.5 18t-73 49.5t-49.5 73t-18 89.5t18 89.5t49.5 73t73 49.5t89.5 18t89.5 -18t73 -49.5t49.5 -73t18 -89.5zM453 460q0 38 -14 71t-39 58t-57.5 39.5t-70.5 14.5q-37 0 -70 -14.5t-58 -39.5t-39 -58t-14 -71
q0 -37 14 -70.5t39 -58.5t58 -39.5t70 -14.5q38 0 70.5 14.5t57.5 39.5t39 58.5t14 70.5zM329 330l-70 104q-3 5 -9 5h-22v-109l-40 1v259h124q19 0 33 -14l18 -18q7 -7 9 -14.5t2 -16.5v-25q0 -9 -2 -16.5t-9 -14.5l-18 -18q-14 -14 -29 -14h-15l75 -109h-47zM334 529
q0 5 -3 8l-13 13q-1 1 -4 2.5t-5 1.5h-81v-79h81q5 0 9 4l13 13q3 3 3 8v29z" />
    <glyph glyph-name="macron" unicode="&#xaf;" horiz-adv-x="465" 
d="M79 569v64h308v-64h-308z" />
    <glyph glyph-name="degree" unicode="&#xb0;" 
d="M441 464q0 -14 -3 -29.5t-14 -26.5q-13 -13 -29 -15t-27 -2h-129q-11 0 -27 2.5t-28 14.5q-11 11 -14.5 26.5t-3.5 29.5v130q0 14 3.5 29.5t14.5 26.5q12 12 28 14.5t27 2.5h129q11 0 27 -2t29 -15q11 -11 14 -26.5t3 -29.5v-130zM378 583q0 14 -6.5 19.5t-17.5 5.5h-100
q-12 0 -18.5 -5.5t-6.5 -19.5v-108q0 -14 6.5 -19.5t18.5 -5.5h100q11 0 17.5 5.5t6.5 19.5v108z" />
    <glyph glyph-name="plusminus" unicode="&#xb1;" 
d="M342 228v-172h-76v172h-201v76h200v172h76v-172h201v-76h-200zM65 -76v76h477v-76h-477z" />
    <glyph glyph-name="twosuperior" unicode="&#xb2;" horiz-adv-x="329" 
d="M30 267v130q0 13 7.5 24t19.5 16l173 79q7 4 7 10v60q0 5 -3 7l-13 14q-3 3 -9 3h-97q-6 0 -9 -3l-36 -37l-42 41l43 42q7 6 15 10t18 4h116q19 0 33 -14l28 -28q13 -13 13 -29v-87q0 -27 -26 -38l-174 -81q-7 -2 -7 -9v-57h207v-57h-264z" />
    <glyph glyph-name="threesuperior" unicode="&#xb3;" horiz-adv-x="329" 
d="M294 338q0 -16 -13 -29l-28 -28q-14 -14 -33 -14h-116q-10 0 -18 4t-15 10l-43 42l42 41l36 -37q3 -3 9 -3h97q6 0 9 3l13 14q3 2 3 7v72q0 4 -3 7l-19 19q-3 3 -8 3h-80v57h80q5 0 8 3l19 20q3 2 3 7v50q0 5 -3 7l-13 14q-3 3 -9 3h-97q-6 0 -9 -3l-36 -37l-42 41l43 42
q7 6 15 10t18 4h116q19 0 33 -14l28 -28q13 -13 13 -29v-67q0 -16 -13 -29l-22 -22l22 -22q13 -13 13 -28v-90z" />
    <glyph glyph-name="acute" unicode="&#xb4;" horiz-adv-x="465" 
d="M210 521h-94l146 146h94z" />
    <glyph glyph-name="mu" unicode="&#xb5;" 
d="M424 0v74l-53 -53q-21 -21 -49 -21h-62q-7 0 -20.5 2.5t-18.5 7.5l-32 33v-234h-86v667h85v-341q0 -5 2 -8l4 -6l41 -40q7 -7 14 -7h67q8 0 14 6l83 83q6 6 6 14v299h85v-476h-80z" />
    <glyph glyph-name="paragraph" unicode="&#xb6;" horiz-adv-x="629" 
d="M429 0v589h-77v-589h-82v307h-101q-29 0 -51 22l-52 52q-10 10 -13.5 22t-3.5 26v116q0 14 3.5 26t13.5 22l52 52q22 22 51 22h341v-667h-81zM270 589h-89q-9 0 -15 -6l-30 -30q-6 -6 -6 -14v-103q0 -9 5 -14l31 -31q6 -6 15 -6h89v204z" />
    <glyph glyph-name="periodcentered" unicode="&#xb7;" horiz-adv-x="304" 
d="M98 281v106h107v-106h-107z" />
    <glyph glyph-name="cedilla" unicode="&#xb8;" horiz-adv-x="465" 
d="M205 -188l-45 45l54 54l-55 55l46 46l100 -100z" />
    <glyph glyph-name="onesuperior" unicode="&#xb9;" horiz-adv-x="329" 
d="M67 267v51h75v298h-75v51h132v-349h75v-51h-207z" />
    <glyph glyph-name="ordmasculine" unicode="&#xba;" horiz-adv-x="386" 
d="M342 417q0 -23 -15 -38l-31 -31q-14 -14 -35 -14h-137q-22 0 -36 14l-30 31q-15 15 -15 36v171q0 21 15 36l30 31q14 14 36 14h136q22 0 36 -14l30 -31q16 -16 16 -36v-169zM279 583q0 3 -5 8l-14 14q-4 4 -7 4h-121q-4 0 -8 -4l-14 -14q-5 -5 -5 -8v-165q0 -3 5 -8
l14 -14q4 -4 7 -4h122q3 0 7 4l14 14q5 5 5 10v163z" />
    <glyph glyph-name="guillemotright" unicode="&#xbb;" horiz-adv-x="593" 
d="M502 238q0 -7 -4 -25.5t-21 -35.5l-124 -124l-55 55l116 116q14 14 0 28l-116 116l55 55l124 -124q17 -17 21 -35.5t4 -25.5zM295 238q0 -7 -4 -25.5t-21 -35.5l-124 -124l-55 55l116 116q14 14 0 28l-116 116l55 55l124 -124q17 -17 21 -35.5t4 -25.5z" />
    <glyph glyph-name="onequarter" unicode="&#xbc;" horiz-adv-x="845" 
d="M723 105v-105h-57v105h-183v48l164 247h76v-243h52v-52h-52zM277 0h-62l350 672h61zM67 267v51h75v298h-75v51h132v-349h75v-51h-207zM666 338l-120 -181h120v181z" />
    <glyph glyph-name="onehalf" unicode="&#xbd;" horiz-adv-x="845" 
d="M553 0v130q0 13 7.5 24t19.5 16l173 79q7 4 7 10v60q0 5 -3 7l-13 14q-3 3 -9 3h-97q-6 0 -9 -3l-36 -37l-42 41l43 42q7 6 15 10t18 4h116q19 0 33 -14l28 -28q13 -13 13 -29v-87q0 -27 -26 -38l-174 -81q-7 -2 -7 -9v-57h207v-57h-264zM277 0h-62l350 672h62zM67 267
v51h75v298h-75v51h132v-349h75v-51h-207z" />
    <glyph glyph-name="threequarters" unicode="&#xbe;" horiz-adv-x="845" 
d="M723 105v-105h-57v105h-183v48l164 247h76v-243h52v-52h-52zM287 0h-62l350 672h61zM294 338q0 -16 -13 -29l-28 -28q-14 -14 -33 -14h-116q-10 0 -18 4t-15 10l-43 42l42 41l36 -37q3 -3 9 -3h97q6 0 9 3l13 14q3 2 3 7v72q0 4 -3 7l-19 19q-3 3 -8 3h-80v57h80q5 0 8 3
l19 20q3 2 3 7v50q0 5 -3 7l-13 14q-3 3 -9 3h-97q-6 0 -9 -3l-36 -37l-42 41l43 42q7 6 15 10t18 4h116q19 0 33 -14l28 -28q13 -13 13 -29v-67q0 -16 -13 -29l-22 -22l22 -22q13 -13 13 -28v-90zM666 338l-120 -181h120v181z" />
    <glyph glyph-name="questiondown" unicode="&#xbf;" horiz-adv-x="509" 
d="M231 370v106h106v-106h-106zM395 -170q-21 -21 -50 -21h-139q-29 0 -50 21l-45 45q-20 20 -20 49v104q0 29 21 50l123 123q6 6 6 14v56h86v-59q0 -29 -20 -49l-124 -124q-7 -7 -7 -14v-96q0 -8 6 -14l22 -22q6 -6 15 -6h113q10 0 14 6l58 57l56 -55z" />
    <glyph glyph-name="Agrave" unicode="&#xc0;" horiz-adv-x="699" 
d="M304 726l-147 146h92l147 -146h-92zM566 0l-68 179h-299l-68 -179h-91l250 667h120l249 -667h-93zM349 585l-118 -322h234z" />
    <glyph glyph-name="Aacute" unicode="&#xc1;" horiz-adv-x="699" 
d="M399 726h-95l146 146h95zM566 0l-68 179h-299l-68 -179h-91l250 667h120l249 -667h-93zM349 585l-118 -322h234z" />
    <glyph glyph-name="Acircumflex" unicode="&#xc2;" horiz-adv-x="699" 
d="M445 740l-95 96l-96 -96h-91l132 132h108l133 -132h-91zM566 0l-68 179h-299l-68 -179h-91l250 667h120l249 -667h-93zM349 585l-118 -322h234z" />
    <glyph glyph-name="Atilde" unicode="&#xc3;" horiz-adv-x="699" 
d="M455 742q-19 -13 -38 -13q-11 0 -22 4t-20 10l-86 58q-8 6 -16 0l-82 -56l-36 51l88 58q10 6 19 10t20 4q21 0 41 -15l81 -56q9 -5 17 0l90 59l34 -55zM566 0l-68 179h-299l-68 -179h-91l250 667h120l249 -667h-93zM349 585l-118 -322h234z" />
    <glyph glyph-name="Adieresis" unicode="&#xc4;" horiz-adv-x="699" 
d="M393 772v86h86v-86h-86zM221 772v86h86v-86h-86zM566 0l-68 179h-299l-68 -179h-91l250 667h120l249 -667h-93zM349 585l-118 -322h234z" />
    <glyph glyph-name="Aring" unicode="&#xc5;" horiz-adv-x="699" 
d="M445 778q0 -26 -18.5 -44.5t-44.5 -18.5h-65q-26 0 -44 18.5t-18 44.5v64q0 26 18 44.5t44 18.5h65q26 0 44.5 -18.5t18.5 -44.5v-64zM566 0l-68 179h-299l-68 -179h-91l250 667h120l249 -667h-93zM398 836q0 9 -6.5 15.5t-15.5 6.5h-52q-9 0 -15.5 -6.5t-6.5 -15.5v-52
q0 -9 6.5 -15.5t15.5 -6.5h52q9 0 15.5 6.5t6.5 15.5v52zM349 585l-118 -322h234z" />
    <glyph glyph-name="AE" unicode="&#xc6;" horiz-adv-x="862" 
d="M426 0v290h-235v-290h-91v514q0 32 21 51l82 81q21 21 49 21h530v-88h-265v-201h265v-88h-265v-202h265v-88h-356zM426 579h-159q-8 0 -14 -6l-56 -56q-6 -6 -6 -14v-125h235v201z" />
    <glyph glyph-name="Ccedilla" unicode="&#xc7;" horiz-adv-x="612" 
d="M478 21q-21 -21 -50 -21h-90l88 -88l-100 -100l-45 46l54 54l-55 55l33 33h-80q-29 0 -50 21l-82 82q-21 21 -21 50v361q0 29 21 50l82 82q21 21 50 21h195q29 0 50 -21l94 -94l-62 -62l-83 83q-6 6 -14 6h-165q-8 0 -14 -6l-57 -57q-6 -6 -6 -14v-337q0 -8 6 -14l57 -57
q6 -6 14 -6h165q8 0 14 6l82 83l63 -62z" />
    <glyph glyph-name="Egrave" unicode="&#xc8;" horiz-adv-x="611" 
d="M334 726l-146 146h92l146 -146h-92zM100 0v667h431v-88h-340v-201h340v-88h-340v-202h340v-88h-431z" />
    <glyph glyph-name="Eacute" unicode="&#xc9;" horiz-adv-x="611" 
d="M299 726h-95l146 146h95zM100 0v667h431v-88h-340v-201h340v-88h-340v-202h340v-88h-431z" />
    <glyph glyph-name="Ecircumflex" unicode="&#xca;" horiz-adv-x="611" 
d="M411 740l-96 96l-95 -96h-91l132 132h108l132 -132h-90zM100 0v667h431v-88h-340v-201h340v-88h-340v-202h340v-88h-431z" />
    <glyph glyph-name="Edieresis" unicode="&#xcb;" horiz-adv-x="611" 
d="M358 772v86h86v-86h-86zM186 772v86h86v-86h-86zM100 0v667h431v-88h-340v-201h340v-88h-340v-202h340v-88h-431z" />
    <glyph glyph-name="Igrave" unicode="&#xcc;" horiz-adv-x="329" 
d="M118 726l-147 146h92l147 -146h-92zM119 0v667h91v-667h-91z" />
    <glyph glyph-name="Iacute" unicode="&#xcd;" horiz-adv-x="329" 
d="M214 726h-95l146 146h95zM119 0v667h91v-667h-91z" />
    <glyph glyph-name="Icircumflex" unicode="&#xce;" horiz-adv-x="329" 
d="M260 740l-95 96l-96 -96h-91l132 132h108l133 -132h-91zM119 0v667h91v-667h-91z" />
    <glyph glyph-name="Idieresis" unicode="&#xcf;" horiz-adv-x="329" 
d="M207 772v86h86v-86h-86zM35 772v86h86v-86h-86zM119 0v667h91v-667h-91z" />
    <glyph glyph-name="Eth" unicode="&#xd0;" horiz-adv-x="672" 
d="M592 153q0 -29 -21 -50l-82 -82q-21 -21 -50 -21h-339v289h-93v89h93v289h338q29 0 50 -21l82 -82q22 -22 22 -50v-361zM501 502q0 6 -6 14l-57 57q-6 6 -14 6h-233v-201h155v-89h-155v-201h233q10 0 14 6l57 57q6 6 6 14v337z" />
    <glyph glyph-name="Ntilde" unicode="&#xd1;" horiz-adv-x="692" 
d="M451 742q-19 -13 -38 -13q-11 0 -22 4t-20 10l-86 58q-8 6 -16 0l-82 -56l-36 51l88 58q10 6 19 10t20 4q21 0 41 -15l81 -56q9 -5 17 0l90 59l34 -55zM456 0l-266 563v-563h-90v667h136l266 -563v563h90v-667h-136z" />
    <glyph glyph-name="Ograve" unicode="&#xd2;" horiz-adv-x="713" 
d="M340 726l-146 146h92l146 -146h-92zM633 153q0 -29 -21 -50l-82 -82q-21 -21 -50 -21h-247q-29 0 -50 21l-82 82q-21 21 -21 50v361q0 29 21 50l82 82q21 21 50 21h246q29 0 50 -21l82 -82q22 -22 22 -50v-361zM542 502q0 6 -6 14l-57 57q-6 6 -14 6h-217q-8 0 -14 -6
l-57 -57q-6 -6 -6 -14v-337q0 -8 6 -14l57 -57q6 -6 14 -6h217q10 0 14 6l57 57q6 6 6 14v337z" />
    <glyph glyph-name="Oacute" unicode="&#xd3;" horiz-adv-x="713" 
d="M377 726h-95l146 146h95zM633 153q0 -29 -21 -50l-82 -82q-21 -21 -50 -21h-247q-29 0 -50 21l-82 82q-21 21 -21 50v361q0 29 21 50l82 82q21 21 50 21h246q29 0 50 -21l82 -82q22 -22 22 -50v-361zM542 502q0 6 -6 14l-57 57q-6 6 -14 6h-217q-8 0 -14 -6l-57 -57
q-6 -6 -6 -14v-337q0 -8 6 -14l57 -57q6 -6 14 -6h217q10 0 14 6l57 57q6 6 6 14v337z" />
    <glyph glyph-name="Ocircumflex" unicode="&#xd4;" horiz-adv-x="713" 
d="M452 740l-96 96l-95 -96h-91l132 132h108l132 -132h-90zM633 153q0 -29 -21 -50l-82 -82q-21 -21 -50 -21h-247q-29 0 -50 21l-82 82q-21 21 -21 50v361q0 29 21 50l82 82q21 21 50 21h246q29 0 50 -21l82 -82q22 -22 22 -50v-361zM542 502q0 6 -6 14l-57 57q-6 6 -14 6
h-217q-8 0 -14 -6l-57 -57q-6 -6 -6 -14v-337q0 -8 6 -14l57 -57q6 -6 14 -6h217q10 0 14 6l57 57q6 6 6 14v337z" />
    <glyph glyph-name="Otilde" unicode="&#xd5;" horiz-adv-x="713" 
d="M462 742q-10 -6 -19 -9.5t-20 -3.5t-21.5 4t-19.5 10l-86 58q-9 6 -17 0l-81 -56l-37 51l88 58q20 14 39 14q11 0 21.5 -4.5t19.5 -10.5l82 -56q8 -5 16 0l90 59l34 -55zM633 153q0 -29 -21 -50l-82 -82q-21 -21 -50 -21h-247q-29 0 -50 21l-82 82q-21 21 -21 50v361
q0 29 21 50l82 82q21 21 50 21h246q29 0 50 -21l82 -82q22 -22 22 -50v-361zM542 502q0 6 -6 14l-57 57q-6 6 -14 6h-217q-8 0 -14 -6l-57 -57q-6 -6 -6 -14v-337q0 -8 6 -14l57 -57q6 -6 14 -6h217q10 0 14 6l57 57q6 6 6 14v337z" />
    <glyph glyph-name="Odieresis" unicode="&#xd6;" horiz-adv-x="713" 
d="M399 772v86h86v-86h-86zM227 772v86h86v-86h-86zM633 153q0 -29 -21 -50l-82 -82q-21 -21 -50 -21h-247q-29 0 -50 21l-82 82q-21 21 -21 50v361q0 29 21 50l82 82q21 21 50 21h246q29 0 50 -21l82 -82q22 -22 22 -50v-361zM542 502q0 6 -6 14l-57 57q-6 6 -14 6h-217
q-8 0 -14 -6l-57 -57q-6 -6 -6 -14v-337q0 -8 6 -14l57 -57q6 -6 14 -6h217q10 0 14 6l57 57q6 6 6 14v337z" />
    <glyph glyph-name="multiply" unicode="&#xd7;" 
d="M465 20l-162 162l-161 -162l-53 53l161 162l-161 161l53 54l161 -162l162 162l53 -53l-161 -162l161 -161z" />
    <glyph glyph-name="Oslash" unicode="&#xd8;" horiz-adv-x="713" 
d="M633 153q0 -29 -21 -50l-82 -82q-21 -21 -50 -21h-173l-33 -139l-56 14l30 125h-15q-29 0 -50 21l-82 82q-21 21 -21 50v361q0 29 21 50l82 82q21 21 50 21h175l34 141l55 -13l-31 -128h13q29 0 50 -21l82 -82q22 -22 22 -50v-361zM542 502q0 6 -6 14l-57 57q-6 6 -14 6
h-20l-117 -491h136q10 0 14 6l57 57q7 7 7 14v337zM248 579q-8 0 -14 -6l-57 -57q-6 -6 -6 -14v-337q0 -8 6 -14l57 -57q6 -6 14 -6h21l117 491h-138z" />
    <glyph glyph-name="Ugrave" unicode="&#xd9;" horiz-adv-x="692" 
d="M349 726l-147 146h92l147 -146h-92zM592 153q0 -29 -21 -50l-82 -82q-21 -21 -50 -21h-186q-29 0 -50 21l-82 82q-21 21 -21 50v514h91v-502q0 -8 6 -14l57 -57q6 -6 14 -6h155q10 0 14 6l57 57q6 6 6 14v502h92v-514z" />
    <glyph glyph-name="Uacute" unicode="&#xda;" horiz-adv-x="692" 
d="M360 726h-94l146 146h94zM592 153q0 -29 -21 -50l-82 -82q-21 -21 -50 -21h-186q-29 0 -50 21l-82 82q-21 21 -21 50v514h91v-502q0 -8 6 -14l57 -57q6 -6 14 -6h155q10 0 14 6l57 57q6 6 6 14v502h92v-514z" />
    <glyph glyph-name="Ucircumflex" unicode="&#xdb;" horiz-adv-x="692" 
d="M441 740l-95 96l-96 -96h-91l132 132h108l133 -132h-91zM592 153q0 -29 -21 -50l-82 -82q-21 -21 -50 -21h-186q-29 0 -50 21l-82 82q-21 21 -21 50v514h91v-502q0 -8 6 -14l57 -57q6 -6 14 -6h155q10 0 14 6l57 57q6 6 6 14v502h92v-514z" />
    <glyph glyph-name="Udieresis" unicode="&#xdc;" horiz-adv-x="692" 
d="M389 772v86h86v-86h-86zM217 772v86h86v-86h-86zM592 153q0 -29 -21 -50l-82 -82q-21 -21 -50 -21h-186q-29 0 -50 21l-82 82q-21 21 -21 50v514h91v-502q0 -8 6 -14l57 -57q6 -6 14 -6h155q10 0 14 6l57 57q6 6 6 14v502h92v-514z" />
    <glyph glyph-name="Yacute" unicode="&#xdd;" horiz-adv-x="636" 
d="M359 726h-95l146 146h95zM364 295v-295h-91v295l-233 372h102l177 -283l177 283h100z" />
    <glyph glyph-name="Thorn" unicode="&#xde;" horiz-adv-x="652" 
d="M592 270q0 -29 -21 -50l-59 -59q-20 -20 -48 -20h-273v-141h-91v667h91v-140h272q28 0 48 -20l59 -59q22 -22 22 -50v-128zM501 386q0 5 -2 8l-4 6l-33 32q-7 7 -14 7h-257v-210h256q10 0 14 6l33 33q6 6 6 14z" />
    <glyph glyph-name="germandbls" unicode="&#xdf;" horiz-adv-x="565" 
d="M505 115q0 -29 -21 -50l-44 -44q-21 -21 -50 -21h-168v78h154q10 0 14 6l23 22q6 6 6 14v155q0 10 -6 14l-18 19q-6 6 -14 6h-131v78h130q7 0 14 5l19 19q6 6 6 15v116q0 9 -5 14l-22 22q-6 6 -14 6h-171q-9 0 -14 -6l-22 -21q-5 -5 -5 -14v-739h-86v742q0 27 20 49
l45 46q21 21 50 21h194q29 0 50 -21l45 -45q21 -21 21 -50v-119q0 -30 -21 -51l-28 -28l28 -28q21 -21 21 -49v-161z" />
    <glyph glyph-name="agrave" unicode="&#xe0;" horiz-adv-x="556" 
d="M288 521l-147 146h92l147 -146h-92zM406 0v73l-53 -52q-21 -21 -49 -21h-130q-29 0 -49 20l-44 44q-21 21 -21 51v78q0 30 21 51l39 39q21 21 50 21h231v54q0 8 -6 14l-20 20q-6 6 -14 6h-180q-9 0 -14 -6l-37 -37l-53 53l48 48q20 20 49 20h198q29 0 49 -20l44 -44
q21 -21 21 -51v-361h-80zM401 230h-215q-8 0 -14 -6l-20 -20q-7 -7 -7 -14v-72q0 -5 2 -8l4 -6l20 -20q6 -6 14 -6h116q9 0 15 6l79 79q6 6 6 14v53z" />
    <glyph glyph-name="aacute" unicode="&#xe1;" horiz-adv-x="556" 
d="M289 521h-95l146 146h95zM406 0v73l-53 -52q-21 -21 -49 -21h-130q-29 0 -49 20l-44 44q-21 21 -21 51v78q0 30 21 51l39 39q21 21 50 21h231v54q0 8 -6 14l-20 20q-6 6 -14 6h-180q-9 0 -14 -6l-37 -37l-53 53l48 48q20 20 49 20h198q29 0 49 -20l44 -44q21 -21 21 -51
v-361h-80zM401 230h-215q-8 0 -14 -6l-20 -20q-7 -7 -7 -14v-72q0 -5 2 -8l4 -6l20 -20q6 -6 14 -6h116q9 0 15 6l79 79q6 6 6 14v53z" />
    <glyph glyph-name="acircumflex" unicode="&#xe2;" horiz-adv-x="556" 
d="M381 535l-96 96l-95 -96h-91l132 132h108l132 -132h-90zM406 0v73l-53 -52q-21 -21 -49 -21h-130q-29 0 -49 20l-44 44q-21 21 -21 51v78q0 30 21 51l39 39q21 21 50 21h231v54q0 8 -6 14l-20 20q-6 6 -14 6h-180q-9 0 -14 -6l-37 -37l-53 53l48 48q20 20 49 20h198
q29 0 49 -20l44 -44q21 -21 21 -51v-361h-80zM401 230h-215q-8 0 -14 -6l-20 -20q-7 -7 -7 -14v-72q0 -5 2 -8l4 -6l20 -20q6 -6 14 -6h116q9 0 15 6l79 79q6 6 6 14v53z" />
    <glyph glyph-name="atilde" unicode="&#xe3;" horiz-adv-x="556" 
d="M396 554q-20 -14 -39 -14q-11 0 -21.5 4t-19.5 10l-86 58q-9 6 -17 1l-81 -56l-37 50l88 59q10 6 19 9.5t20 3.5t21.5 -4t19.5 -10l82 -56q7 -5 16 0l90 58l34 -54zM406 0v73l-53 -52q-21 -21 -49 -21h-130q-29 0 -49 20l-44 44q-21 21 -21 51v78q0 30 21 51l39 39
q21 21 50 21h231v54q0 8 -6 14l-20 20q-6 6 -14 6h-180q-9 0 -14 -6l-37 -37l-53 53l48 48q20 20 49 20h198q29 0 49 -20l44 -44q21 -21 21 -51v-361h-80zM401 230h-215q-8 0 -14 -6l-20 -20q-7 -7 -7 -14v-72q0 -5 2 -8l4 -6l20 -20q6 -6 14 -6h116q9 0 15 6l79 79
q6 6 6 14v53z" />
    <glyph glyph-name="adieresis" unicode="&#xe4;" horiz-adv-x="556" 
d="M331 581v86h86v-86h-86zM159 581v86h86v-86h-86zM406 0v73l-53 -52q-21 -21 -49 -21h-130q-29 0 -49 20l-44 44q-21 21 -21 51v78q0 30 21 51l39 39q21 21 50 21h231v54q0 8 -6 14l-20 20q-6 6 -14 6h-180q-9 0 -14 -6l-37 -37l-53 53l48 48q20 20 49 20h198q29 0 49 -20
l44 -44q21 -21 21 -51v-361h-80zM401 230h-215q-8 0 -14 -6l-20 -20q-7 -7 -7 -14v-72q0 -5 2 -8l4 -6l20 -20q6 -6 14 -6h116q9 0 15 6l79 79q6 6 6 14v53z" />
    <glyph glyph-name="aring" unicode="&#xe5;" horiz-adv-x="556" 
d="M388 587q0 -26 -18.5 -44.5t-44.5 -18.5h-65q-26 0 -44 18.5t-18 44.5v64q0 26 18 44.5t44 18.5h65q26 0 44.5 -18.5t18.5 -44.5v-64zM406 0v73l-53 -52q-21 -21 -49 -21h-130q-29 0 -49 20l-44 44q-21 21 -21 51v78q0 30 21 51l39 39q21 21 50 21h231v54q0 8 -6 14
l-20 20q-6 6 -14 6h-180q-9 0 -14 -6l-37 -37l-53 53l48 48q20 20 49 20h198q29 0 49 -20l44 -44q21 -21 21 -51v-361h-80zM341 645q0 9 -6.5 15.5t-15.5 6.5h-52q-9 0 -15.5 -6.5t-6.5 -15.5v-52q0 -9 6.5 -15.5t15.5 -6.5h52q9 0 15.5 6.5t6.5 15.5v52zM401 230h-215
q-8 0 -14 -6l-20 -20q-7 -7 -7 -14v-72q0 -5 2 -8l4 -6l20 -20q6 -6 14 -6h116q9 0 15 6l79 79q6 6 6 14v53z" />
    <glyph glyph-name="ae" unicode="&#xe6;" horiz-adv-x="798" 
d="M448 217v-99q0 -8 6 -14l20 -20q6 -6 14 -6h124q10 0 14 6l55 55l55 -55l-63 -64q-20 -20 -49 -20h-147q-30 0 -50 20l-30 31l-31 -31q-20 -20 -49 -20h-143q-29 0 -49 20l-44 44q-21 21 -21 51v67q0 27 21 50l39 40q20 20 50 20h193v66q0 6 -6 14l-20 20q-6 6 -14 6
h-142q-9 0 -14 -6l-37 -37l-53 53l48 48q20 20 49 20h153q29 0 49 -20l29 -29l29 29q20 20 49 20h141q29 0 49 -20l44 -44q21 -21 21 -51v-144h-290zM653 358q0 5 -2 8l-4 6l-20 20q-6 6 -14 6h-125q-8 0 -14 -6l-20 -20q-6 -6 -6 -14v-66h205v66zM363 218h-177q-9 0 -14 -6
l-20 -20q-7 -7 -7 -14v-60q0 -5 2 -8l4 -6l20 -20q6 -6 14 -6h120q8 0 14 6l37 37q7 7 7 14v83z" />
    <glyph glyph-name="ccedilla" unicode="&#xe7;" horiz-adv-x="518" 
d="M415 20q-20 -20 -49 -20h-93l88 -88l-100 -100l-43 44l56 56l-57 57l31 31h-74q-29 0 -49 20l-44 44q-21 21 -21 51v246q0 30 21 51l44 44q20 20 49 20h191q27 0 49 -20l64 -63l-55 -56l-55 55q-6 6 -14 6h-168q-9 0 -14 -6l-20 -20q-7 -7 -7 -14v-240q0 -6 6 -14l20 -20
q6 -6 14 -6h169q8 0 14 6l54 55l56 -55z" />
    <glyph glyph-name="egrave" unicode="&#xe8;" horiz-adv-x="546" 
d="M273 521l-146 146h92l146 -146h-92zM145 217v-99q0 -7 5 -14l20 -20q6 -6 14 -6h177q8 0 14 6l54 55l56 -55l-63 -64q-20 -20 -49 -20h-199q-29 0 -49 20l-44 44q-21 21 -21 51v246q0 30 21 51l44 44q20 20 49 20h198q29 0 49 -20l44 -44q21 -21 21 -51v-144h-341z
M401 358q0 8 -6 14l-20 20q-6 6 -14 6h-175q-9 0 -14 -6l-20 -20q-5 -5 -7 -14v-66h256v66z" />
    <glyph glyph-name="eacute" unicode="&#xe9;" horiz-adv-x="546" 
d="M287 521h-94l146 146h94zM145 217v-99q0 -7 5 -14l20 -20q6 -6 14 -6h177q8 0 14 6l54 55l56 -55l-63 -64q-20 -20 -49 -20h-199q-29 0 -49 20l-44 44q-21 21 -21 51v246q0 30 21 51l44 44q20 20 49 20h198q29 0 49 -20l44 -44q21 -21 21 -51v-144h-341zM401 358
q0 8 -6 14l-20 20q-6 6 -14 6h-175q-9 0 -14 -6l-20 -20q-5 -5 -7 -14v-66h256v66z" />
    <glyph glyph-name="ecircumflex" unicode="&#xea;" horiz-adv-x="546" 
d="M369 535l-96 96l-95 -96h-91l132 132h108l132 -132h-90zM145 217v-99q0 -7 5 -14l20 -20q6 -6 14 -6h177q8 0 14 6l54 55l56 -55l-63 -64q-20 -20 -49 -20h-199q-29 0 -49 20l-44 44q-21 21 -21 51v246q0 30 21 51l44 44q20 20 49 20h198q29 0 49 -20l44 -44
q21 -21 21 -51v-144h-341zM401 358q0 8 -6 14l-20 20q-6 6 -14 6h-175q-9 0 -14 -6l-20 -20q-5 -5 -7 -14v-66h256v66z" />
    <glyph glyph-name="edieresis" unicode="&#xeb;" horiz-adv-x="546" 
d="M316 581v86h86v-86h-86zM144 581v86h86v-86h-86zM145 217v-99q0 -7 5 -14l20 -20q6 -6 14 -6h177q8 0 14 6l54 55l56 -55l-63 -64q-20 -20 -49 -20h-199q-29 0 -49 20l-44 44q-21 21 -21 51v246q0 30 21 51l44 44q20 20 49 20h198q29 0 49 -20l44 -44q21 -21 21 -51v-144
h-341zM401 358q0 8 -6 14l-20 20q-6 6 -14 6h-175q-9 0 -14 -6l-20 -20q-5 -5 -7 -14v-66h256v66z" />
    <glyph glyph-name="igrave" unicode="&#xec;" horiz-adv-x="266" 
d="M84 521l-146 146h92l146 -146h-92zM86 0v476h86v-476h-86z" />
    <glyph glyph-name="iacute" unicode="&#xed;" horiz-adv-x="266" 
d="M184 521h-94l146 146h94zM94 0v476h86v-476h-86z" />
    <glyph glyph-name="icircumflex" unicode="&#xee;" horiz-adv-x="266" 
d="M229 535l-96 96l-95 -96h-91l132 132h108l132 -132h-90zM90 0v476h86v-476h-86z" />
    <glyph glyph-name="idieresis" unicode="&#xef;" horiz-adv-x="266" 
d="M176 581v86h86v-86h-86zM4 581v86h86v-86h-86zM90 0v476h86v-476h-86z" />
    <glyph glyph-name="eth" unicode="&#xf0;" horiz-adv-x="567" 
d="M497 117q0 -32 -21 -53l-44 -44q-20 -20 -49 -20h-199q-29 0 -49 20l-44 44q-21 21 -21 51v218q0 30 21 51l44 44q20 20 49 20h120l-95 95l-48 -48l-41 40l49 49l-55 55l53 54l56 -56l48 49l41 -40l-49 -49l212 -213q22 -22 22 -51v-216zM411 330q0 8 -6 14l-20 20
q-6 6 -14 6h-175q-9 0 -14 -6l-20 -20q-7 -7 -7 -14v-212q0 -5 2 -8l4 -6l20 -20q6 -6 14 -6h176q8 0 14 6l20 20q6 6 6 17v209z" />
    <glyph glyph-name="ntilde" unicode="&#xf1;" horiz-adv-x="562" 
d="M383 554q-10 -6 -19 -10t-19 -4q-11 0 -22 4t-20 10l-86 58q-8 6 -16 1l-82 -56l-36 50l88 59q20 13 39 13q11 0 21.5 -4t19.5 -10l81 -56q8 -5 17 0l90 58l34 -54zM396 0v358q0 8 -6 14l-23 23q-7 7 -14 7h-84q-7 0 -15 -6l-82 -83q-6 -6 -6 -14v-299h-86v476h80v-74
l53 53q21 21 50 21h104q29 0 49 -20l44 -44q22 -22 22 -51v-361h-86z" />
    <glyph glyph-name="ograve" unicode="&#xf2;" horiz-adv-x="547" 
d="M265 521l-147 146h92l147 -146h-92zM487 117q0 -32 -21 -53l-44 -44q-20 -20 -49 -20h-199q-29 0 -49 20l-44 44q-21 21 -21 51v246q0 30 21 51l44 44q20 20 49 20h198q29 0 49 -20l44 -44q22 -22 22 -51v-244zM401 358q0 8 -6 14l-20 20q-6 6 -14 6h-175q-9 0 -14 -6
l-20 -20q-7 -7 -7 -14v-240q0 -5 2 -8l4 -6l20 -20q6 -6 14 -6h176q8 0 14 6l20 20q6 6 6 17v237z" />
    <glyph glyph-name="oacute" unicode="&#xf3;" horiz-adv-x="547" 
d="M282 521h-95l146 146h95zM487 117q0 -32 -21 -53l-44 -44q-20 -20 -49 -20h-199q-29 0 -49 20l-44 44q-21 21 -21 51v246q0 30 21 51l44 44q20 20 49 20h198q29 0 49 -20l44 -44q22 -22 22 -51v-244zM401 358q0 8 -6 14l-20 20q-6 6 -14 6h-175q-9 0 -14 -6l-20 -20
q-7 -7 -7 -14v-240q0 -5 2 -8l4 -6l20 -20q6 -6 14 -6h176q8 0 14 6l20 20q6 6 6 17v237z" />
    <glyph glyph-name="ocircumflex" unicode="&#xf4;" horiz-adv-x="547" 
d="M369 535l-96 96l-95 -96h-91l132 132h108l132 -132h-90zM487 117q0 -32 -21 -53l-44 -44q-20 -20 -49 -20h-199q-29 0 -49 20l-44 44q-21 21 -21 51v246q0 30 21 51l44 44q20 20 49 20h198q29 0 49 -20l44 -44q22 -22 22 -51v-244zM401 358q0 8 -6 14l-20 20q-6 6 -14 6
h-175q-9 0 -14 -6l-20 -20q-7 -7 -7 -14v-240q0 -5 2 -8l4 -6l20 -20q6 -6 14 -6h176q8 0 14 6l20 20q6 6 6 17v237z" />
    <glyph glyph-name="otilde" unicode="&#xf5;" horiz-adv-x="547" 
d="M379 554q-20 -14 -39 -14q-11 0 -21.5 4t-19.5 10l-86 58q-9 6 -17 1l-81 -56l-37 50l88 59q19 13 39 13q11 0 21.5 -4t19.5 -10l82 -56q7 -5 16 0l90 58l34 -54zM487 117q0 -32 -21 -53l-44 -44q-20 -20 -49 -20h-199q-29 0 -49 20l-44 44q-21 21 -21 51v246q0 30 21 51
l44 44q20 20 49 20h198q29 0 49 -20l44 -44q22 -22 22 -51v-244zM401 358q0 8 -6 14l-20 20q-6 6 -14 6h-175q-9 0 -14 -6l-20 -20q-7 -7 -7 -14v-240q0 -5 2 -8l4 -6l20 -20q6 -6 14 -6h176q8 0 14 6l20 20q6 6 6 17v237z" />
    <glyph glyph-name="odieresis" unicode="&#xf6;" horiz-adv-x="547" 
d="M316 581v86h86v-86h-86zM144 581v86h86v-86h-86zM487 117q0 -32 -21 -53l-44 -44q-20 -20 -49 -20h-199q-29 0 -49 20l-44 44q-21 21 -21 51v246q0 30 21 51l44 44q20 20 49 20h198q29 0 49 -20l44 -44q22 -22 22 -51v-244zM401 358q0 8 -6 14l-20 20q-6 6 -14 6h-175
q-9 0 -14 -6l-20 -20q-7 -7 -7 -14v-240q0 -5 2 -8l4 -6l20 -20q6 -6 14 -6h176q8 0 14 6l20 20q6 6 6 17v237z" />
    <glyph glyph-name="divide" unicode="&#xf7;" 
d="M250 370v107h107v-106zM65 200v75h477v-75h-477zM250 0v106h107v-106h-107z" />
    <glyph glyph-name="oslash" unicode="&#xf8;" horiz-adv-x="547" 
d="M487 117q0 -14 -5 -28t-16 -25l-44 -44q-20 -20 -49 -20h-150l-30 -94l-49 16l26 78q-10 0 -22 4.5t-23 15.5l-44 44q-21 21 -21 51v246q0 30 21 51l44 44q20 20 49 20h149l31 96l49 -17l-26 -79q10 0 21.5 -4.5t22.5 -15.5l44 -44q22 -22 22 -51v-244zM401 358
q0 8 -6 14l-20 20q-6 6 -14 6h-9l-104 -320h113q8 0 14 6l20 20q6 6 6 17v237zM186 398q-9 0 -14 -6l-20 -20q-7 -7 -7 -14v-240q0 -6 6 -14l20 -20q6 -6 14 -6h9l104 320h-112z" />
    <glyph glyph-name="ugrave" unicode="&#xf9;" horiz-adv-x="561" 
d="M281 521l-147 146h92l147 -146h-92zM401 0v74l-53 -53q-21 -21 -49 -21h-105q-29 0 -49 20l-44 44q-21 21 -21 51v361h85v-358q0 -5 2 -8l4 -6l24 -23q7 -7 14 -7h84q8 0 14 6l83 83q6 6 6 14v299h85v-476h-80z" />
    <glyph glyph-name="uacute" unicode="&#xfa;" horiz-adv-x="561" 
d="M288 521h-95l146 146h95zM401 0v74l-53 -53q-21 -21 -49 -21h-105q-29 0 -49 20l-44 44q-21 21 -21 51v361h85v-358q0 -5 2 -8l4 -6l24 -23q7 -7 14 -7h84q8 0 14 6l83 83q6 6 6 14v299h85v-476h-80z" />
    <glyph glyph-name="ucircumflex" unicode="&#xfb;" horiz-adv-x="561" 
d="M377 535l-96 96l-95 -96h-91l132 132h108l132 -132h-90zM401 0v74l-53 -53q-21 -21 -49 -21h-105q-29 0 -49 20l-44 44q-21 21 -21 51v361h85v-358q0 -5 2 -8l4 -6l24 -23q7 -7 14 -7h84q8 0 14 6l83 83q6 6 6 14v299h85v-476h-80z" />
    <glyph glyph-name="udieresis" unicode="&#xfc;" horiz-adv-x="561" 
d="M323 581v86h86v-86h-86zM151 581v86h86v-86h-86zM401 0v74l-53 -53q-21 -21 -49 -21h-105q-29 0 -49 20l-44 44q-21 21 -21 51v361h85v-358q0 -5 2 -8l4 -6l24 -23q7 -7 14 -7h84q8 0 14 6l83 83q6 6 6 14v299h85v-476h-80z" />
    <glyph glyph-name="yacute" unicode="&#xfd;" horiz-adv-x="505" 
d="M291 521h-95l146 146h95zM235 -191h-87l59 183l-167 484h89l124 -370l125 370h87z" />
    <glyph glyph-name="thorn" unicode="&#xfe;" horiz-adv-x="577" 
d="M507 116q0 -31 -21 -52l-44 -44q-20 -20 -49 -20h-130q-29 0 -49 20l-48 49v-260h-86v858h85v-260l48 48q21 21 50 21h129q29 0 49 -20l44 -44q22 -22 22 -51v-245zM421 358q0 8 -6 14l-20 20q-6 6 -14 6h-116q-9 0 -14 -6l-79 -79q-7 -7 -7 -14v-122q0 -6 6 -14l79 -79
q6 -6 15 -6h116q8 0 14 6l20 20q6 6 6 17v237z" />
    <glyph glyph-name="ydieresis" unicode="&#xff;" horiz-adv-x="505" 
d="M295 581v86h86v-86h-86zM123 581v86h86v-86h-86zM235 -191h-87l59 183l-167 484h89l124 -370l125 370h87z" />
    <glyph glyph-name="dotlessi" unicode="&#x131;" horiz-adv-x="266" 
d="M90 0v476h86v-476h-86z" />
    <glyph glyph-name="Lslash" unicode="&#x141;" horiz-adv-x="571" 
d="M101 0v258l-57 -57l-40 40l97 97v329h91v-238l61 61l40 -40l-101 -101v-261h339v-88h-430z" />
    <glyph glyph-name="lslash" unicode="&#x142;" horiz-adv-x="275" 
d="M180 347v-347h-86v261l-54 -54l-40 40l94 94v326h85v-241l56 56l40 -40z" />
    <glyph glyph-name="OE" unicode="&#x152;" horiz-adv-x="842" 
d="M233 0q-29 0 -50 21l-82 82q-21 21 -21 50v361q0 29 21 50l82 82q21 21 50 21h529v-88h-265v-201h265v-88h-265v-202h265v-88h-529zM406 579h-158q-8 0 -14 -6l-57 -57q-6 -6 -6 -14v-337q0 -8 6 -14l57 -57q6 -6 14 -6h158v491z" />
    <glyph glyph-name="oe" unicode="&#x153;" horiz-adv-x="798" 
d="M448 217v-99q0 -8 6 -14l20 -20q6 -6 14 -6h124q10 0 14 6l55 55l55 -55l-63 -64q-20 -20 -49 -20h-140q-30 0 -50 20l-28 28l-29 -28q-20 -20 -49 -20h-154q-29 0 -49 20l-44 44q-21 21 -21 51v246q0 30 21 51l44 44q20 20 49 20h153q14 0 27 -4.5t23 -15.5l28 -29
l29 29q20 20 49 20h141q29 0 49 -20l44 -44q21 -21 21 -51v-144h-290zM653 358q0 5 -2 8l-4 6l-20 20q-6 6 -14 6h-125q-8 0 -14 -6l-20 -20q-6 -6 -6 -14v-66h205v66zM364 358q0 5 -2 8l-4 6l-20 20q-6 6 -14 6h-138q-9 0 -14 -6l-20 -20q-7 -7 -7 -14v-240q0 -6 6 -14
l20 -20q6 -6 14 -6h138q10 0 14 6l20 20q7 7 7 14v240z" />
    <glyph glyph-name="Scaron" unicode="&#x160;" horiz-adv-x="713" 
d="M410 740h-108l-132 132h90l96 -96l95 96h91zM633 153q0 -29 -21 -50l-82 -82q-21 -21 -50 -21h-256q-29 0 -50 21l-94 94l62 62l83 -83q6 -6 14 -6h225q10 0 14 6l57 57q7 7 7 14v82q0 8 -6 13.5t-13 6.5l-377 49q-28 4 -47 25t-19 49v124q0 29 21 50l82 82q21 21 50 21
h255q27 0 50 -21l95 -94l-62 -62l-83 83q-6 6 -14 6h-226q-8 0 -14 -6l-57 -57q-6 -6 -6 -14v-82q0 -8 5 -13.5t13 -6.5l378 -49q28 -4 47 -25t19 -49v-124z" />
    <glyph glyph-name="scaron" unicode="&#x161;" horiz-adv-x="529" 
d="M324 535h-108l-132 132h90l96 -96l95 96h91zM469 116q0 -31 -21 -52l-44 -44q-20 -20 -49 -20h-174q-29 0 -49 20l-62 62l55 55l53 -53q6 -6 14 -6h151q8 0 14 6l20 20q6 6 6 16v49q0 8 -5 13.5t-13 6.5l-232 29q-26 3 -44.5 23t-18.5 46v74q0 30 21 51l44 44
q20 20 49 20h174q27 0 49 -20l62 -61l-55 -56l-53 53q-6 6 -14 6h-151q-8 0 -14 -6l-20 -20q-6 -6 -6 -14v-46q0 -8 5 -13.5t13 -6.5l233 -30q26 -3 44 -23t18 -46v-77z" />
    <glyph glyph-name="Ydieresis" unicode="&#x178;" horiz-adv-x="636" 
d="M361 772v86h86v-86h-86zM189 772v86h86v-86h-86zM364 295v-295h-91v295l-233 372h102l177 -283l177 283h100z" />
    <glyph glyph-name="Zcaron" unicode="&#x17d;" horiz-adv-x="652" 
d="M380 740h-108l-133 132h91l95 -96l96 96h91zM80 0v69l372 510h-372v88h492v-69l-373 -510h373v-88h-492z" />
    <glyph glyph-name="zcaron" unicode="&#x17e;" horiz-adv-x="477" 
d="M293 535h-108l-132 132h90l96 -96l95 96h91zM40 0v63l283 335h-283v78h397v-63l-283 -335h283v-78h-397z" />
    <glyph glyph-name="florin" unicode="&#x192;" 
d="M324 398v-478q0 -28 -20 -48l-68 -68l-55 55l52 53q6 6 6 14v472h-77v78h76v78q0 31 21 52l41 41q20 20 49 20h94v-78h-79q-8 0 -14 -6l-20 -20q-6 -6 -6 -16v-71h119v-78h-119z" />
    <glyph glyph-name="circumflex" unicode="&#x2c6;" horiz-adv-x="465" 
d="M329 535l-96 96l-95 -96h-91l132 132h108l132 -132h-90z" />
    <glyph glyph-name="caron" unicode="&#x2c7;" horiz-adv-x="465" 
d="M287 535h-108l-132 132h90l96 -96l95 96h91z" />
    <glyph glyph-name="breve" unicode="&#x2d8;" horiz-adv-x="465" 
d="M379 609q0 -11 -4 -18t-11 -14l-51 -51q-8 -8 -16 -10t-18 -2h-92q-10 0 -18 2t-16 10l-51 51q-7 7 -11 14t-4 18v58h63v-53q0 -3 1.5 -5t3.5 -4l30 -29q3 -3 10 -3h76q7 0 10 2l30 30q2 2 3.5 4t1.5 5v53h63v-58z" />
    <glyph glyph-name="dotaccent" unicode="&#x2d9;" horiz-adv-x="465" 
d="M189 581v86h86v-86h-86z" />
    <glyph glyph-name="ring" unicode="&#x2da;" horiz-adv-x="465" 
d="M327 587q0 -26 -18.5 -44.5t-44.5 -18.5h-65q-26 0 -44 18.5t-18 44.5v64q0 26 18 44.5t44 18.5h65q26 0 44.5 -18.5t18.5 -44.5v-64zM280 645q0 9 -6.5 15.5t-15.5 6.5h-52q-9 0 -15.5 -6.5t-6.5 -15.5v-52q0 -9 6.5 -15.5t15.5 -6.5h52q9 0 15.5 6.5t6.5 15.5v52z" />
    <glyph glyph-name="ogonek" unicode="&#x2db;" horiz-adv-x="465" 
d="M250 -89l54 -54l-45 -45l-100 100l101 100l45 -46z" />
    <glyph glyph-name="tilde" unicode="&#x2dc;" horiz-adv-x="465" 
d="M338 554q-10 -6 -19 -10t-19 -4q-11 0 -22 4t-20 10l-86 58q-8 6 -16 1l-82 -56l-36 50l88 59q20 13 39 13q11 0 21.5 -4t19.5 -10l81 -56q8 -5 17 0l90 58l34 -54z" />
    <glyph glyph-name="hungarumlaut" unicode="&#x2dd;" horiz-adv-x="465" 
d="M305 514h-94l153 153h94zM101 514h-94l153 153h94z" />
    <glyph glyph-name="pi" unicode="&#x3c0;" horiz-adv-x="807" 
d="M417 297q-14 0 -26 4.5t-23 15.5l-227 231l3 -220h-74v339h339v-74l-219 3l223 -219q6 -6 14 -6h310v-75z" />
    <glyph glyph-name="endash" unicode="&#x2013;" 
d="M53 200v76h500v-76h-500z" />
    <glyph glyph-name="emdash" unicode="&#x2014;" horiz-adv-x="1000" 
d="M100 200v76h800v-76h-800z" />
    <glyph glyph-name="quoteleft" unicode="&#x2018;" horiz-adv-x="304" 
d="M203 607q-7 -7 -7 -14v-176h-88v177q0 16 4.5 27.5t15.5 22.5l49 48l56 -55z" />
    <glyph glyph-name="quoteright" unicode="&#x2019;" horiz-adv-x="304" 
d="M196 490q0 -17 -4.5 -28t-15.5 -22l-49 -49l-57 56l30 30q7 7 7 14v176h89v-177z" />
    <glyph glyph-name="quotesinglbase" unicode="&#x201a;" horiz-adv-x="304" 
d="M196 -71q0 -17 -4.5 -28t-15.5 -22l-49 -49l-57 56l30 30q7 7 7 14v176h89v-177z" />
    <glyph glyph-name="quotedblleft" unicode="&#x201c;" horiz-adv-x="541" 
d="M440 607q-7 -7 -7 -14v-176h-88v177q0 16 4.5 27.5t15.5 22.5l49 48l56 -55zM203 607q-7 -7 -7 -14v-176h-88v177q0 16 4.5 27.5t15.5 22.5l49 48l56 -55z" />
    <glyph glyph-name="quotedblright" unicode="&#x201d;" horiz-adv-x="541" 
d="M433 490q0 -17 -4.5 -28t-15.5 -22l-49 -49l-57 56l30 30q7 7 7 14v176h89v-177zM196 490q0 -17 -4.5 -28t-15.5 -22l-49 -49l-57 56l30 30q7 7 7 14v176h88v-177h1z" />
    <glyph glyph-name="quotedblbase" unicode="&#x201e;" horiz-adv-x="541" 
d="M433 -71q0 -17 -4.5 -28t-15.5 -22l-49 -49l-57 56l30 30q7 7 7 14v176h89v-177zM196 -71q0 -17 -4.5 -28t-15.5 -22l-49 -49l-57 56l30 30q7 7 7 14v176h88v-177h1z" />
    <glyph glyph-name="dagger" unicode="&#x2020;" 
d="M346 400v-491h-85v491h-146v78h146v191h85v-191h146v-78h-146z" />
    <glyph glyph-name="daggerdbl" unicode="&#x2021;" 
d="M346 187v-278h-85v277h-146v78h146v136h-146v78h146v191h85v-191h146v-78h-146v-135h146v-78h-146z" />
    <glyph glyph-name="bullet" unicode="&#x2022;" horiz-adv-x="500" 
d="M166 250v168h168v-168h-168z" />
    <glyph glyph-name="ellipsis" unicode="&#x2026;" horiz-adv-x="1000" 
d="M780 0v106h106v-106h-106zM447 0v106h106v-106h-106zM114 0v106h106v-106h-106z" />
    <glyph glyph-name="perthousand" unicode="&#x2030;" horiz-adv-x="1220" 
d="M1129 69q0 -17 -12 -29l-26 -26q-14 -14 -32 -14h-123q-18 0 -32 14l-26 26q-13 13 -13 29v254q0 17 12 29l26 26q14 14 32 14h123q18 0 32 -14l26 -26q13 -13 13 -29v-254zM787 69q0 -17 -12 -29l-26 -26q-14 -14 -32 -14h-123q-18 0 -32 14l-26 26q-13 13 -13 29v254
q0 17 12 29l26 26q14 14 32 14h123q18 0 32 -14l26 -26q12 -12 12 -29v-254h1zM292 0h-62l349 672h62zM354 349q0 -17 -12 -29l-26 -26q-14 -14 -32 -14h-123q-18 0 -32 14l-26 26q-12 12 -12 29v254q0 17 12 29l26 26q14 14 32 14h123q18 0 32 -14l26 -26q12 -12 12 -29
v-254zM1067 318q0 2 -1 3t-2 3l-12 11q0 1 -2 1.5t-3 0.5h-99q-2 0 -4 -0.5t-2 -1.5l-11 -11q-4 -4 -4 -6v-244q0 -2 1 -3t2 -3l12 -11q0 -2 5 -2h99q2 0 4 0.5t2 1.5l11 11q4 4 4 7v243zM725 318q0 2 -1 3t-2 3l-12 11q0 1 -2 1.5t-3 0.5h-99q-2 0 -4 -0.5t-2 -1.5l-11 -11
q-4 -4 -4 -6v-244q0 -2 1 -3t2 -3l12 -11q0 -2 5 -2h99q2 0 4 0.5t2 1.5l11 11q3 3 3 7zM292 598q0 3 -3 6l-11 11q-2 2 -6 2h-99q-4 0 -6 -2l-11 -11q-3 -3 -3 -6v-244q0 -3 3 -6l11 -11q2 -2 6 -2h99q4 0 6 2l11 11q3 3 3 7v243z" />
    <glyph glyph-name="guilsinglleft" unicode="&#x2039;" horiz-adv-x="386" 
d="M240 53l-124 124q-17 17 -21 35.5t-4 25.5t4 25.5t21 35.5l124 124l55 -55l-116 -116q-6 -6 -6 -14t6 -14l116 -116z" />
    <glyph glyph-name="guilsinglright" unicode="&#x203a;" horiz-adv-x="386" 
d="M295 238q0 -7 -4 -25.5t-21 -35.5l-124 -124l-55 55l116 116q14 14 0 28l-116 116l55 55l124 -124q17 -17 21 -35.5t4 -25.5z" />
    <glyph glyph-name="fraction" unicode="&#x2044;" horiz-adv-x="287" 
d="M0 0h-62l349 672h62z" />
    <glyph glyph-name="Euro" unicode="&#x20ac;" 
d="M465 21q-21 -21 -50 -21h-136q-29 0 -50 21l-82 82q-21 21 -21 50v94h-77v50h77v75h-77v50h77v92q0 29 21 50l82 82q21 21 50 21h136q29 0 50 -21l94 -94l-61 -60l-84 84q-6 6 -14 6h-106q-8 0 -14 -6l-60 -60q-6 -6 -6 -14v-80h133v-50h-133v-75h133v-50h-133v-82
q0 -8 6 -14l60 -60q6 -6 14 -6h106q8 0 14 6l84 84l61 -60z" />
    <glyph glyph-name="trademark" unicode="&#x2122;" horiz-adv-x="954" 
d="M769 234v345l-114 -345h-77l-114 345v-345h-66v433h102l117 -355l116 355h102v-433h-66zM212 603v-369h-68v369h-134v64h336v-64h-134z" />
    <glyph glyph-name="Omega" unicode="&#x2126;" horiz-adv-x="807" 
d="M427 296q-8 0 -14 -6l-223 -219l219 3v-74h-339v339h74l-3 -220l227 231q11 11 23 15.5t26 4.5l320 1v-75h-310z" />
    <glyph glyph-name="partialdiff" unicode="&#x2202;" 
d="M465 20l-162 162l-161 -162l-53 53l161 162l-161 161l53 54l161 -162l162 162l53 -53l-161 -162l161 -161z" />
    <glyph glyph-name="Delta" unicode="&#x2206;" horiz-adv-x="807" 
d="M685 71l-219 220q-6 4 -15 6l-246 3l157 -153l-52 -53l-240 240l240 239l52 -52l-158 -154l258 3q28 0 48 -20l227 -226z" />
    <glyph glyph-name="product" unicode="&#x220f;" horiz-adv-x="807" 
d="M663 328l3 220l-227 -231q-11 -11 -23 -15.5t-26 -4.5l-320 -1v75h310q8 0 14 6l223 219l-219 -3v74h339v-339h-74z" />
    <glyph glyph-name="summation" unicode="&#x2211;" horiz-adv-x="620" 
d="M444 581v86h86v-86h-86zM530 -78q0 -31 -21 -52l-41 -41q-20 -20 -49 -20h-93v78h78q8 0 14 6l20 20q6 6 6 16v469h-242v-398h-85v398h-77v78h76v78q0 31 21 52l41 41q20 20 49 20h94v-78h-79q-8 0 -14 -6l-20 -20q-6 -6 -6 -16v-71h328v-554z" />
    <glyph glyph-name="minus" unicode="&#x2212;" 
d="M64 200v76h478v-76h-478z" />
    <glyph glyph-name="radical" unicode="&#x221a;" horiz-adv-x="807" 
d="M446 395q-4 -4 -6 -14l-3 -246l153 157l53 -52l-240 -240l-239 240l52 52l154 -158l-4 258q0 15 5.5 26.5t15.5 21.5l226 227l52 -52z" />
    <glyph glyph-name="infinity" unicode="&#x221e;" horiz-adv-x="807" 
d="M591 375l-154 158l3 -258q0 -28 -20 -48l-226 -227l-53 52l220 220q4 4 6 14l3 246l-153 -157l-53 52l240 240l239 -240z" />
    <glyph glyph-name="integral" unicode="&#x222b;" horiz-adv-x="807" 
d="M398 0v74l219 -3l-223 219q-6 6 -14 6h-310v74h320q14 0 26 -4.5t23 -15.5l227 -231l-3 220h74v-339h-339z" />
    <glyph glyph-name="approxequal" unicode="&#x2248;" 
d="M410 243q-5 -4 -13.5 -8t-19.5 -4q-12 0 -21 4t-13 8l-108 108q-10 11 -21 0l-117 -117l-50 50l145 145q4 4 13 8t20 4q13 0 21.5 -4t12.5 -9l107 -106q11 -10 21 0l122 122l51 -51zM406 39q-5 -4 -13.5 -8t-19.5 -4q-12 0 -21 4t-13 8l-108 108q-10 11 -21 0l-113 -113
l-50 50l141 141q4 4 13 8t20 4q13 1 21.5 -3.5t12.5 -9.5l107 -106q10 -10 21 0l127 125l50 -50z" />
    <glyph glyph-name="notequal" unicode="&#x2260;" 
d="M203 102l-102 -102l-36 35l67 67h-66v76h144l121 121h-265v76h341l100 101l35 -34l-67 -66h67v-76h-143l-120 -122h263v-76h-339z" />
    <glyph glyph-name="lessequal" unicode="&#x2264;" 
d="M376 54l-211 212l211 211l57 -55l-156 -156l156 -156zM139 -76v76h329v-76h-329z" />
    <glyph glyph-name="greaterequal" unicode="&#x2265;" 
d="M231 54l-57 56l156 156l-156 156l57 55l211 -211zM139 -76v76h329v-76h-329z" />
    <glyph glyph-name="lozenge" unicode="&#x25ca;" horiz-adv-x="807" 
d="M497 94l-52 52l158 154l-258 -4q-15 0 -26.5 5.5t-21.5 15.5l-227 226l52 52l219 -219q6 -4 15 -6l246 -3l-157 153l52 53l240 -240z" />
    <glyph glyph-name="fi" unicode="&#xfb01;" 
d="M431 581v86h86v-86h-86zM431 0v476h86v-476h-86zM192 398v-398h-85v398h-77v78h76v78q0 31 21 52l41 41q20 20 49 20h94v-78h-79q-8 0 -14 -6l-20 -20q-6 -6 -6 -16v-71h119v-78h-119z" />
    <glyph glyph-name="fl" unicode="&#xfb02;" 
d="M431 0v667h86v-667h-86zM192 398v-398h-85v398h-77v78h76v78q0 31 21 52l41 41q20 20 49 20h94v-78h-79q-8 0 -14 -6l-20 -20q-6 -6 -6 -16v-71h119v-78h-119z" />
    <glyph glyph-name="apple" horiz-adv-x="842" 
d="M751 117q0 -14 -4 -25.5t-15 -22.5l-47 -47q-22 -22 -51 -22h-426q-29 0 -51 22l-47 47q-11 11 -15 22.5t-4 25.5v433q0 29 19 48l47 47q22 22 51 22h426q29 0 51 -22l47 -47q19 -19 19 -48v-433zM673 546q0 9 -5 14l-29 29q-6 6 -15 6h-406q-9 0 -15 -6l-29 -29
q-5 -5 -5 -14v-425q0 -9 5 -14l29 -29q6 -6 15 -6h123v206h-76v72h76v70q0 31 21 52l41 41q20 20 49 20h122v-72h-115q-8 0 -14 -6l-20 -20q-6 -6 -6 -16v-69h155v-72h-155v-206h205q9 0 15 6l29 29q5 5 5 15v424z" />
  </font>
</defs>
</svg>
